<svg width="810" height="604" viewBox="0 0 810 604" fill="none" xmlns="http://www.w3.org/2000/svg">
<mask id="mask0_1314_23780" style="mask-type:alpha" maskUnits="userSpaceOnUse" x="0" y="0" width="810" height="604">
<rect width="810" height="604" fill="white"/>
</mask>
<g mask="url(#mask0_1314_23780)">
<path d="M1198.34 504.821C1198.33 504.871 1198.31 504.919 1198.28 504.963C1172.21 546.92 1131.3 551.768 1090.23 546.223C1039.01 539.285 988.268 528.367 938.128 516.151C883.601 502.878 857.319 511.694 835.201 564.162C810.315 623.197 779.411 677.307 732.559 722.047C718.103 735.859 716.037 752.464 725.336 769.28C737.77 791.773 752.711 812.935 763.505 836.179C783.04 878.247 801.211 921.04 818.033 964.322C823.84 979.192 825.737 996.305 826.379 1012.59C827.564 1044.22 811.298 1057.96 780.476 1051.44C746.242 1044.2 715.478 1030.02 698.247 997.585C682.353 967.709 668.763 936.543 652.596 906.851C640.377 884.437 626.745 862.619 611.618 842.127C602.493 829.807 589.88 827.678 573.063 835.645C486.642 876.57 396.195 897.361 301.655 892.328C288.765 891.635 285.178 896.992 282.78 908.053C270.623 964.463 258.607 1020.94 245.182 1077.11C236.906 1111.85 204.991 1131.44 168.665 1126.47C127.964 1120.92 102.2 1093.73 106.881 1057.34C111.474 1021.51 118.93 985.912 126.1 950.375C132.831 917.183 141.629 884.3 148.173 851.073C165.781 761.819 196.867 735.071 285.832 745.676C384.816 757.493 475.852 737.557 559.936 681.512C806.069 517.554 835.274 130.416 570.451 -32.3641C542.247 -49.7086 507.528 -56.6854 476.247 -69.3996C451.912 -79.2849 427.088 -88.7138 404.534 -101.75C381.943 -114.793 370.378 -136.301 375.299 -164.273C381.234 -198.083 387.021 -231.922 393.926 -265.551C401.39 -301.895 409.309 -338.191 418.48 -374.176C423.976 -395.775 429.97 -417.869 439.907 -437.775C455.572 -469.057 487.172 -480.87 519.556 -471.395C552.78 -461.684 570.587 -433.798 571.415 -401.265C572.534 -357.715 557.8 -318.505 542.168 -278.917C524.224 -233.418 533.838 -207.108 577.165 -188.103C652.982 -154.827 719.132 -109.033 773.253 -46.3489C778.017 -40.8363 791.114 -37.2071 797.742 -39.8019C815.391 -46.7909 833.111 -55.6852 848.068 -67.368C876.545 -89.6719 902.736 -114.988 930.674 -138.02C943.573 -148.64 957.702 -158.325 972.568 -165.718C1011.21 -184.982 1051.22 -175.446 1067.75 -144.552C1085.51 -111.351 1073.06 -65.9577 1038.79 -43.0947C1005.44 -20.8439 971.342 0.172412 937.638 21.8882C923.521 30.988 909.446 40.2523 895.686 49.8495C866.518 70.1837 856.635 94.2497 865.362 128.107C870.382 147.606 877.337 166.606 884.793 185.269C899.85 222.818 904.845 261.81 901.254 302.598C896.839 352.942 906.834 365.542 956.589 373.693C1007.69 382.057 1058.97 389.632 1110.01 398.492C1122.95 400.721 1135.42 405.799 1147.59 410.82C1174.52 421.948 1195.48 438.815 1203.31 467.47C1204.61 472.206 1204.41 477.259 1203.34 482.142L1198.34 504.821Z" fill="#DA0027"/>
</g>
<path d="M661.728 465.189C667.791 455.091 681.584 444.957 702.108 446.817C706.046 447.18 710.226 448.255 713.674 450.127C727.348 457.56 738.277 467.997 745.751 481.687C750.7 490.771 749.714 499.993 744.697 508.573C737.986 520.035 729.647 530.258 718.506 537.802C704.774 547.095 690.486 546.402 677.435 535.875C672.797 532.128 668.26 528.187 664.149 523.883C647.94 506.934 646.239 492.002 661.716 465.209L661.728 465.189Z" fill="#FABC00"/>
</svg>
