<svg width="1361" height="802" viewBox="0 0 1361 802" fill="none" xmlns="http://www.w3.org/2000/svg">
<path d="M0.00596323 599.465C0.00596323 599.466 0.00596327 599.464 0.00596323 599.465C0.00596338 599.446 0.00612251 578.967 0.00844197 584.464L6.94607e-06 564.472C5.04411e-06 564.467 -6.83781e-06 564.469 5.60567e-06 564.464C0.000411673 564.317 0.109854 544.516 29.6063 558.3C73.5155 576.607 94.3613 612.074 89.684 660.151C88.007 677.243 85.7064 694.402 81.8628 711.111C70.4068 761.077 48.5767 789.107 1.23503e-05 802.006L0.00596323 599.465Z" fill="#DA0027"/>
<path d="M1.37884e-05 440.868C11.7978 438.885 23.5628 441.67 34.8038 448.065C56.7249 460.551 76.3365 476.168 90.9349 497.188C108.919 523.098 107.968 550.318 88.3236 575.435C81.3319 584.359 73.9688 593.098 65.9055 601.033C44.9587 621.678 25.5178 630.276 1.72146e-05 625.471L1.37884e-05 440.868Z" fill="#FABC00"/>
<path fill-rule="evenodd" clip-rule="evenodd" d="M1361 234.301V398.172C1345.98 374.212 1329.31 351.307 1311.28 330.063C1300.89 317.821 1287.7 307.952 1274.49 298.066C1267.24 292.638 1259.98 287.205 1253.17 281.371C1251.29 279.755 1249.39 278.142 1247.5 276.528C1234.38 265.357 1221.2 254.13 1209.81 241.392C1196.74 226.799 1193.15 208.936 1202.41 190.522C1203.73 187.903 1205.05 185.283 1206.36 182.662C1216.23 163.016 1226.1 143.37 1236.54 124.048C1249.33 100.382 1262.43 76.8589 1276.34 53.8567C1284.68 40.0477 1293.47 26.0125 1304.56 14.462C1320.31 -1.88534 1341.79 -4.02886 1361 6.28773V126.946C1355.26 134.938 1349.12 142.699 1342.91 150.465C1320.88 178.017 1322.12 198.774 1348.43 222.55C1352.7 226.411 1356.89 230.327 1361 234.301Z" fill="#DA0027"/>
</svg>
