<svg width="361" height="781" viewBox="0 0 361 781" fill="none" xmlns="http://www.w3.org/2000/svg">
<path fill-rule="evenodd" clip-rule="evenodd" d="M361 111.848V190.155C354.144 179.451 346.607 169.207 338.499 159.656C333.474 153.734 327.095 148.96 320.706 144.178C317.198 141.553 313.686 138.925 310.393 136.103C309.481 135.321 308.565 134.541 307.648 133.76C301.305 128.357 294.929 122.926 289.417 116.764C283.097 109.706 281.357 101.065 285.84 92.1581C286.477 90.8911 287.114 89.6236 287.75 88.3562C292.523 78.853 297.296 69.3498 302.347 60.0036C308.534 48.5562 314.87 37.1776 321.597 26.0512C325.633 19.3716 329.886 12.5826 335.252 6.99547C342.445 -0.474879 352.119 -1.81319 361 2.26933V63.5265C358.68 66.6512 356.251 69.7157 353.798 72.7819C343.146 86.1089 343.743 96.1497 356.47 107.65C358.002 109.035 359.512 110.434 361 111.848Z" fill="#DA0027"/>
<path d="M1.00038 597.569L1.00037 603.123C23.5094 616.927 35.5863 639.758 36.131 670.045C36.3711 684.044 36.1127 698.156 34.5625 712.047C31.1234 743.066 21.8551 764.719 1.50037 779.938C1.32996 780.066 1.16323 780.189 1.0001 780.31C0.862463 780.412 0.957517 775.882 0.990221 774.478C0.996586 774.205 1.0001 773.932 1.00009 773.659L1.00038 597.569Z" fill="#DA0027"/>
<path d="M1.00036 580.069C1.00036 580.069 1.00036 580.069 1.00036 580.069C1.00036 580.069 1.00036 580.064 1.00036 570.069L1.00035 519.345C8.58305 524.67 15.6136 530.806 21.9043 537.949C38.8919 557.251 40.6673 579.385 27.1068 601.563C22.2791 609.444 17.1331 617.21 11.345 624.391C7.91673 628.65 4.49331 632.395 1.00038 635.621L1.00037 603.123L1.00036 580.069Z" fill="#FABC00"/>
</svg>
