<svg width="360" height="781" viewBox="0 0 360 781" fill="none" xmlns="http://www.w3.org/2000/svg">
<path fill-rule="evenodd" clip-rule="evenodd" d="M360 111.848V190.155C353.144 179.451 345.607 169.207 337.499 159.656C332.474 153.734 326.095 148.96 319.706 144.178C316.198 141.553 312.686 138.925 309.393 136.103C308.481 135.321 307.565 134.541 306.648 133.76C300.305 128.357 293.929 122.926 288.417 116.764C282.097 109.706 280.357 101.065 284.84 92.1581C285.477 90.8911 286.114 89.6236 286.75 88.3562C291.523 78.853 296.296 69.3498 301.347 60.0036C307.534 48.5562 313.87 37.1776 320.597 26.0512C324.633 19.3716 328.886 12.5826 334.252 6.99547C341.445 -0.474879 351.119 -1.81319 360 2.26933V63.5265C357.68 66.6512 355.251 69.7157 352.798 72.7819C342.146 86.1089 342.743 96.1497 355.47 107.65C357.002 109.035 358.512 110.434 360 111.848Z" fill="#DA0027"/>
<path d="M0.000332021 603.123C22.5085 616.927 34.585 639.758 35.1297 670.045C35.3698 684.044 35.1114 698.156 33.5612 712.047C30.1223 743.066 20.8543 764.719 0.500308 779.938C0.329908 780.066 0.163179 780.189 6.11779e-05 780.31C6.11779e-05 781 0.000335836 635.621 0.000335836 635.621L0.000332021 603.123Z" fill="#DA0027"/>
<path d="M0.000332021 603.123C0.000332021 603.123 0.000307083 603.123 0.000312948 570.069L0.000304365 519.345C7.58274 524.67 14.6131 530.806 20.9035 537.949C37.8905 557.251 39.6658 579.385 26.1059 601.563C21.2783 609.444 16.1325 617.21 10.3446 624.391C6.91644 628.65 3.49315 632.395 0.000335836 635.621L0.000332021 603.123Z" fill="#FABC00"/>
</svg>
