<svg width="1361" height="1090" viewBox="0 0 1361 1090" fill="none" xmlns="http://www.w3.org/2000/svg">
<path d="M0 883.486V859.986V842.487L0.00439453 825C48.9604 825.459 95.3375 837.041 139.082 861.116C173.278 879.977 188.893 911.325 190.396 948.811C192.304 997.12 187.06 1044.84 168.694 1089.99H153.004H92.0044H78.9654H36.5H0.49994C0.223831 1089.99 0 1089.76 0 1089.49V883.486Z" fill="#DA0027"/>
<path d="M103.964 995.433C119.084 970.217 153.48 944.908 204.659 949.553C214.48 950.46 224.905 953.145 233.502 957.82C267.601 976.383 294.855 1002.44 313.493 1036.63C323.225 1054.52 323.753 1072.63 317.405 1089.99H286.504H241.504H184.004H129.504H78.9654C73.326 1064.04 81.1956 1034.9 103.935 995.482L103.964 995.433Z" fill="#FABC00"/>
<path d="M1278.52 511.475C1264.98 459.901 1280.22 438.569 1330.3 417.868C1340.23 413.769 1350.14 409.61 1360.02 405.371V250.941C1327.03 267.584 1294.23 284.573 1261.24 301.185C1217.86 323.03 1202.72 319.236 1176.68 279.185C1155.59 246.727 1128.89 220.431 1095.23 200.858C1078.52 191.114 1062 180.837 1046.69 169.103C1020.09 148.733 1013.68 125.224 1024.41 93.6752C1029.47 78.7888 1034.98 63.9742 1040.61 49.2591C1046.91 32.8006 1053.36 16.4087 1059.77 0H926.946C924.484 11.039 921.86 22.0334 918.842 32.9203C914.072 50.0352 905.525 66.6196 895.918 81.7426C892.293 87.3991 880.003 92.0422 873.079 90.6017C794.382 74.1967 716.236 77.1497 637.913 94.8715C593.162 105.008 570.299 90.7674 557.593 46.7388C553.133 31.2569 548.595 15.9036 543.031 1H389C393.38 16.0327 399.581 30.7323 405.835 45.0708C419.781 77.0745 434.881 108.609 450.362 139.923C464.688 168.897 480.004 197.4 495.189 225.966C507.743 249.604 529.309 259.165 554.477 256.219C579.612 253.289 604.398 246.392 629.072 240.11C660.792 232.041 691.823 217.76 723.865 214.873C1024.69 187.715 1228.63 493.041 1133.57 753.565C1101.12 842.59 1042.13 908.569 958.393 955.31C890.633 993.146 877.017 1027.24 903.138 1089.5H1056.52L1054.26 1084.83C1053.2 1082.62 1052.14 1080.42 1051.07 1078.21C1046.46 1068.61 1046.11 1062.6 1056.52 1055.88C1132.84 1006.57 1190.87 940.284 1233.98 861.231C1242.37 845.845 1253.41 840.355 1267.7 844.428C1291.44 851.231 1314.79 859.862 1337.39 869.732C1345 873.056 1352.53 876.545 1360.02 880.12V744.689C1344.57 738.346 1328.68 732.831 1313.32 726.229C1296.26 718.898 1288.14 705.346 1291.28 686.923C1301.45 627.234 1293.77 569.503 1278.52 511.475Z" fill="#DA0027"/>
</svg>
