<svg width="1360" height="982" viewBox="0 0 1360 982" fill="none" xmlns="http://www.w3.org/2000/svg">
<rect y="2" width="1360" height="980" fill="white"/>
<path d="M856.555 684.567C887.981 703.437 919.523 746.365 913.734 810.239C912.605 822.495 909.258 835.506 903.432 846.236C880.297 888.793 847.818 922.807 805.211 946.068C776.936 961.47 748.235 958.4 721.533 942.787C685.861 921.9 654.044 895.948 630.566 861.275C601.644 818.538 603.8 774.07 636.564 733.45C648.224 719.018 660.49 704.897 673.886 692.103C726.636 641.655 773.106 636.363 856.493 684.531L856.555 684.567Z" fill="#DA0027"/>
<mask id="mask0_1327_23782" style="mask-type:alpha" maskUnits="userSpaceOnUse" x="0" y="0" width="208" height="204">
<rect width="208" height="204" fill="#D9D9D9"/>
</mask>
<g mask="url(#mask0_1327_23782)">
<path d="M133.557 -80.4329C164.983 -61.563 196.525 -18.635 190.736 45.2387C189.607 57.495 186.26 70.5061 180.434 81.2357C157.299 123.793 124.819 157.807 82.2125 181.068C53.9381 196.47 25.2369 193.4 -1.46496 177.787C-37.1377 156.9 -68.9546 130.948 -92.4323 96.2754C-121.355 53.5375 -119.198 9.07025 -86.4348 -31.5498C-74.7741 -45.9821 -62.5084 -60.1033 -49.1121 -72.8966C3.6377 -123.345 50.1079 -128.637 133.495 -80.469L133.557 -80.4329Z" fill="#DA0027"/>
</g>
</svg>
