<svg width="85" height="78" viewBox="0 0 85 78" fill="none" xmlns="http://www.w3.org/2000/svg">
<rect x="17.502" y="6.89062" width="29.6776" height="58.8252" fill="white"/>
<path fill-rule="evenodd" clip-rule="evenodd" d="M40.3957 0.0820315C41.8788 0.0824322 43.3241 0.569266 44.527 1.47357C45.7298 2.37788 46.6293 3.65382 47.0979 5.12065L49.0164 11.1316H60.6048C61.5418 11.1316 62.4404 11.5197 63.103 12.2104C63.7656 12.9012 64.1378 13.838 64.1378 14.8148C64.1378 15.7917 63.7656 16.7285 63.103 17.4193C62.4404 18.11 61.5418 18.498 60.6048 18.498L60.5942 18.7595L57.531 63.4847C57.3399 66.2714 56.1432 68.8792 54.1818 70.7831C52.2205 72.6871 49.6401 73.7457 46.9601 73.7461H17.7206C15.0407 73.7457 12.4603 72.6871 10.499 70.7831C8.53764 68.8792 7.34094 66.2714 7.14977 63.4847L4.08661 18.7559L4.07602 18.498C3.13899 18.498 2.24035 18.11 1.57777 17.4193C0.915199 16.7285 0.542969 15.7917 0.542969 14.8148C0.542969 13.838 0.915199 12.9012 1.57777 12.2104C2.24035 11.5197 3.13899 11.1316 4.07602 11.1316H15.6644L17.5829 5.12065C18.0517 3.65322 18.9517 2.37686 20.1553 1.4725C21.3588 0.568134 22.805 0.081659 24.2886 0.0820315H40.3957ZM21.7413 29.5476C20.8759 29.5478 20.0407 29.879 19.394 30.4784C18.7473 31.0779 18.3342 31.904 18.2329 32.7999L18.2082 33.2309V55.3301C18.2092 56.2688 18.554 57.1718 19.1722 57.8544C19.7904 58.537 20.6352 58.9478 21.5342 59.0028C22.4332 59.0579 23.3183 58.753 24.0089 58.1504C24.6994 57.5479 25.1432 56.6932 25.2496 55.761L25.2743 55.3301V33.2309C25.2743 32.254 24.9021 31.3172 24.2395 30.6264C23.5769 29.9357 22.6783 29.5476 21.7413 29.5476ZM42.9395 29.5476C42.0025 29.5476 41.1039 29.9357 40.4413 30.6264C39.7787 31.3172 39.4065 32.254 39.4065 33.2309V55.3301C39.4065 56.3069 39.7787 57.2437 40.4413 57.9345C41.1039 58.6252 42.0025 59.0133 42.9395 59.0133C43.8766 59.0133 44.7752 58.6252 45.4378 57.9345C46.1004 57.2437 46.4726 56.3069 46.4726 55.3301V33.2309C46.4726 32.254 46.1004 31.3172 45.4378 30.6264C44.7752 29.9357 43.8766 29.5476 42.9395 29.5476ZM40.3957 7.44843H24.285L23.1085 11.1316H41.5722L40.3957 7.44843Z" fill="#1F2A37"/>
<g clip-path="url(#clip0_2116_24440)">
<ellipse cx="59.2036" cy="53.4634" rx="21.8599" ry="21.8599" fill="#FABC00"/>
<g clip-path="url(#clip1_2116_24440)">
<path d="M50.2367 49.575C51.8873 49.575 53.2254 48.2369 53.2254 46.5863C53.2254 44.9357 51.8873 43.5977 50.2367 43.5977C48.5861 43.5977 47.248 44.9357 47.248 46.5863C47.248 48.2369 48.5861 49.575 50.2367 49.575Z" fill="#1F2A37"/>
<path d="M68.1683 49.575C69.8189 49.575 71.157 48.2369 71.157 46.5863C71.157 44.9357 69.8189 43.5977 68.1683 43.5977C66.5178 43.5977 65.1797 44.9357 65.1797 46.5863C65.1797 48.2369 66.5178 49.575 68.1683 49.575Z" fill="#1F2A37"/>
<g clip-path="url(#clip2_2116_24440)">
<path d="M59.2041 30.1523C46.3529 30.1523 35.8926 40.6126 35.8926 53.4638C35.8926 66.315 46.3529 76.85 59.2788 76.85C72.2047 76.85 82.665 66.3898 82.665 53.4638C82.665 40.5379 72.0553 30.1523 59.2041 30.1523ZM59.2041 73.4878C48.1461 73.4878 39.1801 64.5218 39.1801 53.4638C39.1801 42.4058 48.2208 33.5146 59.2041 33.5146C70.1874 33.5146 79.228 42.4805 79.228 53.5385C79.228 64.5966 70.2621 73.4878 59.2041 73.4878Z" fill="#1F2A37"/>
<path d="M50.2387 49.5789C51.8892 49.5789 53.2273 48.2408 53.2273 46.5902C53.2273 44.9396 51.8892 43.6016 50.2387 43.6016C48.5881 43.6016 47.25 44.9396 47.25 46.5902C47.25 48.2408 48.5881 49.5789 50.2387 49.5789Z" fill="#1F2A37"/>
<path d="M68.1703 49.5789C69.8209 49.5789 71.1589 48.2408 71.1589 46.5902C71.1589 44.9396 69.8209 43.6016 68.1703 43.6016C66.5197 43.6016 65.1816 44.9396 65.1816 46.5902C65.1816 48.2408 66.5197 49.5789 68.1703 49.5789Z" fill="#1F2A37"/>
</g>
<path d="M69.0246 51.4043C65.8039 54.0288 66.2886 58.2937 69.0246 58.2937C71.7606 58.2937 72.9859 55.0131 69.0246 51.4043Z" fill="white"/>
</g>
<path d="M56.7079 54.3046L56.7079 54.3046L56.7037 54.3082C56.6257 54.3737 56.536 54.4229 56.4395 54.4532C56.3431 54.4834 56.2418 54.4942 56.1413 54.4848C56.0408 54.4755 55.9431 54.4462 55.8536 54.3986C55.7644 54.3511 55.6851 54.2862 55.6203 54.2076C55.4916 54.0488 55.4295 53.8447 55.4484 53.6394C55.4672 53.4349 55.5646 53.2468 55.7186 53.1151C56.8048 52.235 58.1555 51.7556 59.5475 51.7556C60.939 51.7556 62.2893 52.2347 63.3752 53.1141C63.4927 53.2168 63.5772 53.3533 63.617 53.506C63.6572 53.6603 63.6498 53.8233 63.5958 53.9732C63.5418 54.123 63.444 54.2521 63.316 54.3436C63.1884 54.4347 63.0367 54.4843 62.8811 54.4861C62.7025 54.4862 62.529 54.4232 62.3907 54.3076L62.3907 54.3075L62.3872 54.3046C61.5832 53.6504 60.5812 53.2932 59.5475 53.2932C58.5139 53.2932 57.5119 53.6504 56.7079 54.3046Z" fill="#1F2A37" stroke="#1F2A37" stroke-width="0.683121" stroke-linejoin="round"/>
</g>
<defs>
<clipPath id="clip0_2116_24440">
<rect width="47.8184" height="47.8184" fill="white" transform="translate(35.2949 29.5547)"/>
</clipPath>
<clipPath id="clip1_2116_24440">
<rect width="47.8184" height="47.8184" fill="white" transform="translate(35.2949 29.5547)"/>
</clipPath>
<clipPath id="clip2_2116_24440">
<rect width="47.8184" height="47.8184" fill="white" transform="translate(35.2949 29.5547)"/>
</clipPath>
</defs>
</svg>
