<svg width="311" height="108" viewBox="0 0 311 108" fill="none" xmlns="http://www.w3.org/2000/svg">
<path d="M253.893 62.1114C253.696 62.2781 253.573 62.5162 253.549 62.7743C253.525 63.0323 253.603 63.2894 253.766 63.4897C253.848 63.5894 253.949 63.6719 254.062 63.7323C254.176 63.7927 254.3 63.8299 254.428 63.8418C254.555 63.8537 254.684 63.84 254.807 63.8015C254.929 63.7631 255.043 63.7006 255.142 63.6177C255.794 63.0871 256.606 62.7977 257.443 62.7977C258.281 62.7977 259.093 63.0871 259.745 63.6177C259.921 63.7645 260.142 63.8446 260.37 63.8442C260.568 63.8422 260.761 63.7791 260.923 63.6633C261.086 63.5475 261.209 63.3845 261.277 63.1962C261.344 63.0078 261.354 62.803 261.303 62.6091C261.253 62.4153 261.145 62.2416 260.994 62.1114C259.987 61.2948 258.735 60.8496 257.443 60.8496C256.152 60.8496 254.899 61.2948 253.893 62.1114Z" fill="#1F2A37"/>
<path d="M138.157 62.1114C137.96 62.2781 137.837 62.5162 137.813 62.7743C137.789 63.0323 137.867 63.2894 138.03 63.4897C138.112 63.5894 138.212 63.6719 138.326 63.7323C138.439 63.7927 138.563 63.8299 138.691 63.8418C138.819 63.8537 138.948 63.84 139.07 63.8015C139.193 63.7631 139.307 63.7006 139.405 63.6177C140.057 63.0871 140.87 62.7977 141.707 62.7977C142.545 62.7977 143.357 63.0871 144.009 63.6177C144.184 63.7645 144.405 63.8446 144.633 63.8442C144.832 63.8422 145.025 63.7791 145.187 63.6633C145.349 63.5475 145.472 63.3845 145.54 63.1962C145.608 63.0078 145.617 62.803 145.567 62.6091C145.516 62.4153 145.408 62.2416 145.257 62.1114C144.251 61.2948 142.998 60.8496 141.707 60.8496C140.416 60.8496 139.163 61.2948 138.157 62.1114Z" fill="#1F2A37"/>
<path d="M154.761 47.4313C154.357 47.0281 153.729 47.0281 153.326 47.4313L150.634 50.164L147.898 47.4313C147.495 47.0281 146.867 47.0281 146.463 47.4313C146.059 47.8345 146.059 48.4617 146.463 48.8649L149.199 51.5976L146.463 54.3303C146.059 54.7335 146.059 55.3607 146.463 55.7639C146.642 55.9431 146.911 56.0775 147.181 56.0775C147.45 56.0775 147.719 55.9879 147.898 55.7639L150.634 53.0312L153.371 55.7639C153.55 55.9431 153.819 56.0775 154.088 56.0775C154.357 56.0775 154.627 55.9879 154.806 55.7639C155.21 55.3607 155.21 54.7335 154.806 54.3303L152.07 51.5976L154.806 48.8649C155.165 48.4617 155.165 47.8345 154.761 47.4313Z" fill="#1F2A37"/>
<path d="M136.269 47.4313C135.865 47.0281 135.237 47.0281 134.834 47.4313L132.142 50.164L129.406 47.4313C129.002 47.0281 128.374 47.0281 127.971 47.4313C127.567 47.8345 127.567 48.4617 127.971 48.8649L130.707 51.5976L127.971 54.3303C127.567 54.7335 127.567 55.3607 127.971 55.7639C128.15 55.9431 128.419 56.0775 128.688 56.0775C128.958 56.0775 129.227 55.9879 129.406 55.7639L132.142 53.0312L134.878 55.7639C135.058 55.9431 135.327 56.0775 135.596 56.0775C135.865 56.0775 136.134 55.9879 136.314 55.7639C136.717 55.3607 136.717 54.7335 136.314 54.3303L133.578 51.5976L136.314 48.8649C136.673 48.4617 136.673 47.8345 136.269 47.4313Z" fill="#1F2A37"/>
<path d="M251.406 47.4313C251.002 47.0281 250.374 47.0281 249.97 47.4313L247.279 50.164L244.543 47.4313C244.139 47.0281 243.511 47.0281 243.107 47.4313C242.704 47.8345 242.704 48.4617 243.107 48.8649L245.844 51.5976L243.107 54.3303C242.704 54.7335 242.704 55.3607 243.107 55.7639C243.287 55.9431 243.556 56.0775 243.825 56.0775C244.094 56.0775 244.363 55.9879 244.543 55.7639L247.279 53.0312L250.015 55.7639C250.195 55.9431 250.464 56.0775 250.733 56.0775C251.002 56.0775 251.271 55.9879 251.451 55.7639C251.854 55.3607 251.854 54.7335 251.451 54.3303L248.714 51.5976L251.451 48.8649C251.809 48.4617 251.809 47.8345 251.406 47.4313Z" fill="#1F2A37"/>
<path fill-rule="evenodd" clip-rule="evenodd" d="M306.81 29.5866C296.739 8.03619 278.592 0.174118 264.975 0H264.948C229.171 0.14733 215.235 10.5274 207.716 36.5513C205.803 43.1544 204.501 49.9717 203.451 56.7757C200.515 75.9152 208.128 90.5679 225.398 98.8586C239.414 105.582 254.479 107.953 269.837 107.98C281.329 107.993 291.12 103.613 297.324 93.394C306.663 77.9779 310.742 61.0081 310.224 43.0472C310.091 38.5202 308.736 33.7252 306.81 29.5866ZM281.168 41.9743C276.236 31.3632 267.347 27.492 260.678 27.4062H260.664C243.141 27.4788 236.315 32.5898 232.632 45.4036C231.695 48.6549 231.058 52.0116 230.544 55.3618C229.106 64.7858 232.834 72.0006 241.293 76.0828C248.158 79.3934 255.537 80.5607 263.059 80.5739C268.688 80.5805 273.483 78.424 276.522 73.3921C281.096 65.8014 283.094 57.4458 282.84 48.6021C282.775 46.373 282.112 44.0121 281.168 41.9743Z" fill="#DA0027"/>
<path d="M269.9 47.4313C269.496 47.0281 268.868 47.0281 268.464 47.4313L265.773 50.164L263.037 47.4313C262.633 47.0281 262.005 47.0281 261.602 47.4313C261.198 47.8345 261.198 48.4617 261.602 48.8649L264.338 51.5976L261.602 54.3303C261.198 54.7335 261.198 55.3607 261.602 55.7639C261.781 55.9431 262.05 56.0775 262.319 56.0775C262.588 56.0775 262.858 55.9879 263.037 55.7639L265.773 53.0312L268.509 55.7639C268.689 55.9431 268.958 56.0775 269.227 56.0775C269.496 56.0775 269.765 55.9879 269.945 55.7639C270.348 55.3607 270.348 54.7335 269.945 54.3303L267.208 51.5976L269.945 48.8649C270.303 48.4617 270.303 47.8345 269.9 47.4313Z" fill="#1F2A37"/>
<path d="M38.746 107.98C31.3559 107.98 24.7675 106.627 18.9809 103.923C13.2291 101.218 8.66252 97.4904 5.28118 92.7398C1.89983 87.9893 0.139437 82.5452 0 76.4076H21.9613C22.2053 80.534 23.9483 83.8802 27.1902 86.4462C30.4321 89.0122 34.2841 90.2952 38.746 90.2952C42.3017 90.2952 45.439 89.515 48.158 87.9546C50.9119 86.3595 53.0558 84.1576 54.5896 81.3489C56.1582 78.5055 56.9426 75.246 56.9426 71.5704C56.9426 67.8254 56.1408 64.5312 54.5373 61.6878C52.9686 58.8444 50.7899 56.6252 48.0012 55.0301C45.2124 53.435 42.0228 52.6202 38.4323 52.5855C35.295 52.5855 32.2448 53.227 29.2818 54.51C26.3536 55.793 24.0703 57.5441 22.4319 59.7633L2.30071 56.1744L7.37273 0H72.8384V18.4127H26.0399L23.2685 45.0956H23.896C25.7784 42.4602 28.6194 40.2757 32.4191 38.5419C36.2188 36.8081 40.4716 35.9412 45.1776 35.9412C51.6265 35.9412 57.3783 37.4496 62.4329 40.4664C67.4875 43.4832 71.4789 47.6269 74.407 52.8976C77.3352 58.1336 78.7819 64.1671 78.747 70.9982C78.7819 78.1761 77.1086 84.5564 73.7273 90.1391C70.3808 95.6872 65.6922 100.056 59.6616 103.246C53.6658 106.402 46.694 107.98 38.746 107.98Z" fill="#3F3F3F"/>
<path fill-rule="evenodd" clip-rule="evenodd" d="M191.669 29.5866C181.599 8.03619 163.451 0.174118 149.834 0H149.807C114.031 0.14733 100.095 10.5274 92.5752 36.5513C90.6621 43.1544 89.3602 49.9717 88.3106 56.7757C85.3746 75.9152 92.987 90.5679 110.258 98.8586C124.273 105.582 139.339 107.953 154.696 107.98C166.188 107.993 175.979 103.613 182.183 93.394C191.523 77.9779 195.601 61.0081 195.083 43.0472C194.95 38.5202 193.595 33.7252 191.669 29.5866ZM166.027 41.9743C161.095 31.3632 152.207 27.492 145.537 27.4062H145.524C128 27.4788 121.175 32.5898 117.492 45.4036C116.555 48.6549 115.917 52.0116 115.403 55.3618C113.965 64.7858 117.693 72.0006 126.153 76.0828C133.017 79.3934 140.396 80.5607 147.918 80.5739C153.547 80.5805 158.343 78.424 161.381 73.3921C165.956 65.8014 167.953 57.4458 167.7 48.6021C167.635 46.373 166.971 44.0121 166.027 41.9743Z" fill="#DA0027"/>
</svg>
