<svg width="57" height="56" viewBox="0 0 57 56" fill="none" xmlns="http://www.w3.org/2000/svg">
<path d="M6.13988 10.6572C9.60998 4.86986 17.5042 -0.938659 29.2503 0.127407C31.5042 0.335381 33.8969 0.951739 35.87 2.0246C43.6961 6.28494 49.9512 12.2662 54.2287 20.1123C57.0611 25.3192 56.4965 30.6046 53.6253 35.5218C49.7844 42.0911 45.0119 47.9503 38.6358 52.2738C30.7765 57.5999 22.5991 57.2028 15.1293 51.1693C12.4752 49.0219 9.8784 46.7632 7.52578 44.2962C-1.75137 34.5822 -2.72462 26.0245 6.13325 10.6685L6.13988 10.6572Z" fill="#FABC00"/>
<path d="M37.7324 13.0391H35.3327C33.2757 13.0391 31.6106 14.7042 31.6106 16.7611V35.6653C31.6106 35.8612 31.6596 36.0571 31.7575 36.253L35.1857 41.934C35.4796 42.4237 35.9693 42.7176 36.557 42.7176C37.1447 42.7176 37.6345 42.4237 37.9283 41.934L41.3565 36.253C41.4545 36.0571 41.5034 35.8612 41.5034 35.6653V16.7611C41.4545 14.7042 39.7893 13.0391 37.7324 13.0391ZM35.3327 15.1939H37.7324C38.565 15.1939 39.2506 15.8796 39.2506 16.7121V18.0345H33.8144V16.7611C33.8144 15.9286 34.5001 15.1939 35.3327 15.1939ZM36.557 39.8281L33.8144 35.3224V20.2873H39.2506V35.3224L36.557 39.8281Z" fill="#1F2A37"/>
<path d="M23.9705 13.0879H17.7508C16.0856 13.0879 14.7144 14.4592 14.7144 16.1243V39.4851C14.7144 41.1503 16.0856 42.5215 17.7508 42.5215H23.9705C25.6357 42.5215 27.0069 41.1503 27.0069 39.4851V16.1243C27.0559 14.4592 25.6846 13.0879 23.9705 13.0879ZM24.8521 39.5341C24.8521 40.0238 24.4603 40.4156 23.9705 40.4156H17.7508C17.261 40.4156 16.8692 40.0238 16.8692 39.5341V37.82H20.2974C20.8851 37.82 21.3749 37.3302 21.3749 36.7426C21.3749 36.1549 20.8851 35.6651 20.2974 35.6651H16.8692V33.2164H17.8487C18.4364 33.2164 18.9262 32.7266 18.9262 32.139C18.9262 31.5513 18.4364 31.0615 17.8487 31.0615H16.8692V28.6618H20.2974C20.8851 28.6618 21.3749 28.172 21.3749 27.5843C21.3749 26.9966 20.8851 26.5069 20.2974 26.5069H16.8692V24.1071H17.8487C18.4364 24.1071 18.9262 23.6174 18.9262 23.0297C18.9262 22.442 18.4364 21.9523 17.8487 21.9523H16.8692V19.5525H20.2974C20.8851 19.5525 21.3749 19.0628 21.3749 18.4751C21.3749 17.8874 20.8851 17.3976 20.2974 17.3976H16.8692V16.1243C16.8692 15.6346 17.261 15.2428 17.7508 15.2428H23.9705C24.4603 15.2428 24.8521 15.6346 24.8521 16.1243V39.5341Z" fill="#1F2A37"/>
</svg>
