<svg width="71" height="70" viewBox="0 0 71 70" fill="none" xmlns="http://www.w3.org/2000/svg">
<rect x="6.5" y="20" width="59" height="13" fill="#DA0027"/>
<path d="M59.5625 15.8594H49.0625V12.7969C49.0625 8.42187 45.4531 4.8125 41.0781 4.8125H29.9219C25.5469 4.8125 21.9375 8.42187 21.9375 12.7969V15.8594H11.4375C6.51562 15.8594 2.46875 19.9063 2.46875 24.8281V35C2.46875 36.3125 3.5625 37.4062 4.875 37.4062H5.20313V56.875C5.20313 61.4688 9.03125 65.2969 13.625 65.2969H57.375C61.9688 65.2969 65.7969 61.4688 65.7969 56.875V37.4062H66.125C67.4375 37.4062 68.5313 36.3125 68.5313 35V24.8281C68.5313 19.9063 64.4844 15.8594 59.5625 15.8594ZM26.8594 12.6875C26.8594 10.9375 28.2813 9.625 29.9219 9.625H41.0781C42.8281 9.625 44.1406 11.0469 44.1406 12.6875V15.75H26.8594V12.6875ZM7.28125 24.8281C7.28125 22.5313 9.14063 20.6719 11.4375 20.6719H59.5625C61.8594 20.6719 63.7188 22.5313 63.7188 24.8281V32.4844H7.28125V24.8281ZM60.875 56.875C60.875 58.8438 59.3438 60.375 57.375 60.375H13.625C11.6563 60.375 10.125 58.8438 10.125 56.875V37.4062H21.9375V43.3125C21.9375 44.625 23.0313 45.7187 24.3438 45.7187C25.6563 45.7187 26.75 44.625 26.75 43.3125V37.4062H44.1406V43.3125C44.1406 44.625 45.2344 45.7187 46.5469 45.7187C47.8594 45.7187 48.9531 44.625 48.9531 43.3125V37.4062H60.7656V56.875H60.875Z" fill="#1F2A37"/>
<path d="M30.0809 49.1056C29.7528 49.3837 29.5466 49.7811 29.507 50.2117C29.4674 50.6423 29.5975 51.0713 29.8693 51.4057C30.0059 51.572 30.1737 51.7095 30.3631 51.8103C30.5525 51.9111 30.7597 51.9732 30.9729 51.9931C31.186 52.0129 31.401 51.9901 31.6054 51.9259C31.8099 51.8618 31.9998 51.7576 32.1642 51.6192C33.2523 50.7338 34.6078 50.2509 36.0055 50.2509C37.4031 50.2509 38.7587 50.7338 39.8467 51.6192C40.1396 51.8642 40.5081 51.9979 40.8884 51.9971C41.2198 51.9938 41.5422 51.8885 41.8127 51.6953C42.0832 51.502 42.2888 51.2301 42.402 50.9157C42.5152 50.6014 42.5307 50.2596 42.4464 49.9362C42.3621 49.6127 42.182 49.3229 41.9301 49.1056C40.2506 47.7429 38.1603 47 36.0055 47C33.8506 47 31.7604 47.7429 30.0809 49.1056Z" fill="#1F2A37"/>
</svg>
