<svg width="57" height="56" viewBox="0 0 57 56" fill="none" xmlns="http://www.w3.org/2000/svg">
<path d="M6.13988 10.6572C9.60998 4.86986 17.5042 -0.938659 29.2503 0.127407C31.5042 0.335381 33.8969 0.951739 35.87 2.0246C43.6961 6.28494 49.9512 12.2662 54.2287 20.1123C57.0611 25.3192 56.4965 30.6046 53.6253 35.5218C49.7844 42.0911 45.0119 47.9503 38.6358 52.2738C30.7765 57.5999 22.5991 57.2028 15.1293 51.1693C12.4752 49.0219 9.8784 46.7632 7.52578 44.2962C-1.75137 34.5822 -2.72462 26.0245 6.13325 10.6685L6.13988 10.6572Z" fill="#FABC00"/>
<path d="M27.861 13.0703C21.1026 13.0703 15.6174 18.3596 15.6174 24.8732C15.6174 29.8196 22.18 37.6555 26.049 41.8673C26.5387 42.406 27.1754 42.6509 27.861 42.6509C28.5467 42.6509 29.1834 42.357 29.6731 41.8673C33.5421 37.6555 40.1047 29.8196 40.1047 24.8732C40.1047 18.3596 34.6195 13.0703 27.861 13.0703ZM28.0569 40.3981C27.959 40.496 27.8121 40.496 27.6651 40.3981C22.9146 35.2068 17.8213 28.4483 17.8213 24.8732C17.8213 19.5839 22.3269 15.2742 27.861 15.2742C33.3952 15.2742 37.9008 19.5839 37.9008 24.8732C37.9008 28.4483 32.8075 35.2068 28.0569 40.3981Z" fill="#1F2A37"/>
<path d="M27.8612 19.877C24.9227 19.877 22.5229 22.2767 22.5229 25.2152C22.5229 28.1536 24.9227 30.6024 27.8612 30.6024C30.7996 30.6024 33.1994 28.2026 33.1994 25.2641C33.1994 22.3257 30.7996 19.877 27.8612 19.877ZM27.8612 28.3985C26.0981 28.3985 24.7268 26.9783 24.7268 25.2641C24.7268 23.55 26.1471 22.1298 27.8612 22.1298C29.5753 22.1298 30.9955 23.55 30.9955 25.2641C30.9955 26.9783 29.6242 28.3985 27.8612 28.3985Z" fill="#1F2A37"/>
</svg>
