<svg width="57" height="56" viewBox="0 0 57 56" fill="none" xmlns="http://www.w3.org/2000/svg">
<path d="M6.13988 10.6572C9.60998 4.86986 17.5042 -0.938659 29.2503 0.127407C31.5042 0.335381 33.8969 0.951739 35.87 2.0246C43.6961 6.28494 49.9512 12.2662 54.2287 20.1123C57.0611 25.3192 56.4965 30.6046 53.6253 35.5218C49.7844 42.0911 45.0119 47.9503 38.6358 52.2738C30.7765 57.5999 22.5991 57.2028 15.1293 51.1693C12.4752 49.0219 9.8784 46.7632 7.52578 44.2962C-1.75137 34.5822 -2.72462 26.0245 6.13325 10.6685L6.13988 10.6572Z" fill="#FABC00"/>
<path d="M39.6149 16.752H16.1071C14.442 16.752 13.0217 18.1232 13.0217 19.8373V35.7051C13.0217 37.3702 14.393 38.7905 16.1071 38.7905H39.6149C41.28 38.7905 42.7003 37.4192 42.7003 35.7051V19.7884C42.7003 18.1232 41.28 16.752 39.6149 16.752ZM39.6149 18.9558C39.6638 18.9558 39.7128 18.9558 39.7618 18.9558L27.861 26.5958L15.9602 18.9558C16.0092 18.9558 16.0581 18.9558 16.1071 18.9558H39.6149ZM39.6149 36.4887H16.1071C15.6174 36.4887 15.2256 36.0969 15.2256 35.6071V21.1107L26.6856 28.4568C27.0284 28.7017 27.4202 28.7997 27.812 28.7997C28.2038 28.7997 28.5956 28.7017 28.9384 28.4568L40.3985 21.1107V35.6561C40.4964 36.1458 40.1046 36.4887 39.6149 36.4887Z" fill="#111928"/>
</svg>
