<svg width="57" height="56" viewBox="0 0 57 56" fill="none" xmlns="http://www.w3.org/2000/svg">
<path d="M6.13988 10.6572C9.60998 4.86986 17.5042 -0.938659 29.2503 0.127407C31.5042 0.335381 33.8969 0.951739 35.87 2.0246C43.6961 6.28494 49.9512 12.2662 54.2287 20.1123C57.0611 25.3192 56.4965 30.6046 53.6253 35.5218C49.7844 42.0911 45.0119 47.9503 38.6358 52.2738C30.7765 57.5999 22.5991 57.2028 15.1293 51.1693C12.4752 49.0219 9.8784 46.7632 7.52578 44.2962C-1.75137 34.5822 -2.72462 26.0245 6.13325 10.6685L6.13988 10.6572Z" fill="#FABC00"/>
<path d="M35.9909 42.0141C32.024 42.0141 26.3919 39.1736 21.2006 34.2762C14.1483 27.5177 11.1609 19.9756 14.2952 16.6454C14.4422 16.4985 14.6381 16.3515 14.834 16.2536L18.8009 14.0008C19.8293 13.4131 21.1027 13.7069 21.7883 14.6864L24.6778 18.8003C25.0206 19.29 25.1676 19.8777 25.0206 20.4654C24.9227 21.0041 24.5799 21.4938 24.0901 21.8367L22.376 22.9631C23.6983 24.8731 27.2735 29.6236 32.9545 33.0028C33.0035 33.0518 33.0525 33.0028 33.0525 33.0028L34.2768 31.3377C34.9625 30.4072 36.2848 30.1623 37.3132 30.799L41.623 33.5416C42.6514 34.1782 42.9453 35.5005 42.3086 36.529L39.9579 40.3C39.8109 40.4959 39.664 40.6918 39.5171 40.8388C38.6355 41.6224 37.4112 42.0141 35.9909 42.0141ZM19.9273 15.9108C19.8783 15.9108 19.9273 15.9108 19.9273 15.9108L15.9114 18.1636C14.0504 20.1715 16.3522 26.5872 22.7678 32.66C29.2814 38.8308 35.9909 41.0347 38.1458 39.1736L40.4966 35.4026L36.1868 32.66C36.1378 32.66 36.0889 32.66 36.0889 32.66L34.8645 34.3252C34.1789 35.2557 32.8566 35.5005 31.8771 34.9129C25.7553 31.2398 21.9352 26.1464 20.564 24.1385C20.2211 23.6487 20.1232 23.061 20.2211 22.5223C20.3191 21.9346 20.6619 21.4449 21.1517 21.151L22.8658 20.0246L20.0252 15.9597C19.9763 15.9597 19.9273 15.9108 19.9273 15.9108Z" fill="#111928"/>
</svg>
