<svg width="57" height="57" viewBox="0 0 57 57" fill="none" xmlns="http://www.w3.org/2000/svg">
<path d="M6.13988 11.1572C9.60998 5.36986 17.5042 -0.438659 29.2503 0.627407C31.5042 0.835381 33.8969 1.45174 35.87 2.5246C43.6961 6.78494 49.9512 12.7662 54.2288 20.6123C57.0611 25.8192 56.4965 31.1046 53.6253 36.0218C49.7844 42.5911 45.0119 48.4503 38.6358 52.7738C30.7765 58.0999 22.5991 57.7028 15.1293 51.6693C12.4752 49.5219 9.8784 47.2632 7.52578 44.7962C-1.75137 35.0822 -2.72462 26.5245 6.13325 11.1685L6.13988 11.1572Z" fill="#FABC00"/>
<path d="M39.9736 13.748H16.1937C14.1259 13.748 12.4717 15.3642 12.4717 17.2742V39.7045C12.4717 41.6635 14.1776 43.2307 16.1937 43.2307H39.9736C42.0414 43.2307 43.6956 41.6145 43.6956 39.7045V17.3232C43.6956 15.3642 42.0414 13.748 39.9736 13.748ZM41.421 17.3232V27.4609H29.2209V15.9519H39.9736C40.749 15.9519 41.421 16.5886 41.421 17.3232ZM16.1937 15.9519H26.9464V27.4119H14.7463V17.3232C14.7463 16.5886 15.4183 15.9519 16.1937 15.9519ZM14.7463 39.7535V29.6158H26.8947V41.0758H16.1937C15.4183 41.1248 14.7463 40.4881 14.7463 39.7535ZM39.9736 41.1248H29.2209V29.6158H41.3693V39.7535C41.421 40.4881 40.749 41.1248 39.9736 41.1248Z" fill="#1F2A37"/>
<path d="M18.2613 23.4454H19.7088V24.8167C19.7088 25.4044 20.2257 25.8941 20.8461 25.8941C21.4664 25.8941 21.9834 25.4044 21.9834 24.8167V23.4454H23.4308C24.0512 23.4454 24.5681 22.9557 24.5681 22.368C24.5681 21.7803 24.0512 21.2905 23.4308 21.2905H21.9834V19.9192C21.9834 19.3315 21.4664 18.8418 20.8461 18.8418C20.2257 18.8418 19.7088 19.3315 19.7088 19.9192V21.2905H18.2613C17.641 21.2905 17.124 21.7803 17.124 22.368C17.124 22.9557 17.5893 23.4454 18.2613 23.4454Z" fill="#1F2A37"/>
<path d="M33.6667 21.6822L32.5294 22.7597C32.0641 23.2004 32.0641 23.8861 32.5294 24.3269C32.7361 24.5227 33.0463 24.6697 33.3565 24.6697C33.6667 24.6697 33.9251 24.5717 34.1836 24.3269L35.3209 23.2494L36.4582 24.3269C36.665 24.5227 36.9752 24.6697 37.2853 24.6697C37.5955 24.6697 37.9057 24.5717 38.1125 24.3269C38.5777 23.8861 38.5777 23.2004 38.1125 22.7597L36.9752 21.6822L38.1125 20.6048C38.5777 20.164 38.5777 19.4784 38.1125 19.0376C37.6472 18.5968 36.9235 18.5968 36.4582 19.0376L35.3209 20.164L34.1836 19.0866C33.7184 18.6458 32.9946 18.6458 32.5294 19.0866C32.0641 19.5274 32.0641 20.213 32.5294 20.6538L33.6667 21.6822Z" fill="#1F2A37"/>
<path d="M22.8105 33.6309H18.8817C18.2613 33.6309 17.7444 34.1206 17.7444 34.7083C17.7444 35.296 18.2613 35.7857 18.8817 35.7857H22.8105C23.4309 35.7857 23.9478 35.296 23.9478 34.7083C23.9478 34.1206 23.4826 33.6309 22.8105 33.6309Z" fill="#1F2A37"/>
<path d="M36.4582 32.7505L32.5294 36.4726C32.0641 36.9133 32.0641 37.599 32.5294 38.0397C32.7361 38.2356 33.0463 38.3826 33.3565 38.3826C33.6667 38.3826 33.9251 38.2846 34.1836 38.0397L38.1125 34.3177C38.5777 33.8769 38.5777 33.1913 38.1125 32.7505C37.6472 32.3097 36.9235 32.3097 36.4582 32.7505Z" fill="#1F2A37"/>
</svg>
