<svg width="57" height="56" viewBox="0 0 57 56" fill="none" xmlns="http://www.w3.org/2000/svg">
<path d="M6.13988 10.6572C9.60998 4.86986 17.5042 -0.938659 29.2503 0.127407C31.5042 0.335381 33.8969 0.951739 35.87 2.0246C43.6961 6.28494 49.9512 12.2662 54.2287 20.1123C57.0611 25.3192 56.4965 30.6046 53.6253 35.5218C49.7844 42.0911 45.0119 47.9503 38.6358 52.2738C30.7765 57.5999 22.5991 57.2028 15.1293 51.1693C12.4752 49.0219 9.8784 46.7632 7.52578 44.2962C-1.75137 34.5822 -2.72462 26.0245 6.13325 10.6685L6.13988 10.6572Z" fill="#FABC00"/>
<path d="M40.6434 23.3268H37.705V17.5968C37.705 15.9317 36.3826 14.6094 34.7175 14.6094H18.5559C16.8908 14.6094 15.5685 15.9317 15.5685 17.5968V26.1673C15.2747 26.4122 15.0298 26.755 14.8829 27.1958L13.0708 36.0112C12.9729 36.501 13.1198 37.0397 13.4626 37.4315C13.7564 37.8233 14.2462 38.0192 14.7359 38.0192H30.5057V39.7333C30.5057 40.8597 31.4362 41.7902 32.5626 41.7902H40.6434C41.7698 41.7902 42.7004 40.8597 42.7004 39.7333V25.3838C42.7004 24.2573 41.7698 23.3268 40.6434 23.3268ZM15.3726 35.8153L16.9888 28.0284H17.2336H30.5547V35.8153H15.3726ZM30.5057 25.3838V25.8245H17.7724V17.5968C17.7724 17.156 18.1152 16.8132 18.5559 16.8132H34.7175C35.1583 16.8132 35.5011 17.156 35.5011 17.5968V23.3268H32.5626C31.4362 23.3268 30.5057 24.2573 30.5057 25.3838ZM40.4965 39.5374H32.7096V25.5307H40.4965V39.5374Z" fill="#111928"/>
<path d="M35.5012 29.3017H37.9499C38.5376 29.3017 39.0763 28.8119 39.0763 28.1752C39.0763 27.5875 38.5866 27.0488 37.9499 27.0488H35.5012C34.9135 27.0488 34.3748 27.5386 34.3748 28.1752C34.3748 28.7629 34.8645 29.3017 35.5012 29.3017Z" fill="#111928"/>
<path d="M36.6276 36.8933C36.5787 36.8933 36.4807 36.9423 36.4317 36.9423C36.3828 36.9913 36.2848 36.9913 36.2358 37.0403C36.1869 37.0892 36.1379 37.1382 36.0889 37.1872C35.893 37.3831 35.7461 37.6769 35.7461 37.9708C35.7461 38.2646 35.844 38.5585 36.0889 38.7544C36.1379 38.8033 36.1869 38.8523 36.2358 38.9013C36.2848 38.9503 36.3828 38.9992 36.4317 38.9992C36.4807 39.0482 36.5787 39.0482 36.6276 39.0482C36.6766 39.0482 36.7746 39.0482 36.8235 39.0482C37.1174 39.0482 37.4112 38.9503 37.6071 38.7054C37.803 38.5095 37.9499 38.2157 37.9499 37.9218C37.9499 37.628 37.852 37.3341 37.6071 37.1382C37.3623 36.9423 36.9705 36.8444 36.6276 36.8933Z" fill="#111928"/>
</svg>
