<svg width="73" height="48" viewBox="0 0 73 48" fill="none" xmlns="http://www.w3.org/2000/svg">
<path d="M37.1622 0C39.214 0.748278 39.7621 2.52306 39.8563 4.40672C39.9728 6.75524 39.9111 9.12104 39.7878 11.473C39.6542 14.0306 40.2554 15.1142 42.732 15.5842C45.5186 16.113 48.1391 16.9581 50.4804 18.605C51.2032 19.1131 51.9465 19.0422 52.6059 18.4633C53.488 17.6891 54.2912 16.8164 55.2195 16.1078C56.8997 14.8256 58.6228 13.5969 60.3783 12.4235C60.9812 12.0191 61.7142 11.7668 62.4216 11.5784C63.7952 11.2155 64.53 11.8048 64.4974 13.2409C64.4615 14.8359 64.0932 16.3446 62.8155 17.4299C61.6389 18.4304 60.3869 19.3412 59.2205 20.3521C58.3401 21.1159 57.4975 21.9368 56.725 22.8112C56.2609 23.3383 56.2712 23.9207 56.7576 24.5912C59.2565 28.0371 60.9075 31.8597 61.4625 36.1178C61.5378 36.6984 61.8016 36.8056 62.3051 36.8039C64.8725 36.7918 67.4416 36.7728 70.009 36.8194C71.5967 36.8471 72.7151 38.0758 72.7956 39.7417C72.8864 41.608 71.9084 43.0216 70.2779 43.1703C68.6731 43.3172 67.0545 43.3344 65.4411 43.3638C63.9339 43.3897 62.4233 43.3206 60.9161 43.3552C56.8672 43.4468 55.4422 42.3252 55.1767 38.2607C54.8821 33.7382 53.2636 29.881 50.1224 26.6874C40.9319 17.3383 23.7566 19.8354 18.8068 33.2215C18.2793 34.6472 18.2587 36.2612 17.959 37.7785C17.7261 38.9588 17.5171 40.1564 17.1318 41.2883C16.7464 42.422 15.9003 43.1478 14.6363 43.2031C13.1085 43.2705 11.5808 43.3448 10.053 43.3673C8.40195 43.3915 6.74916 43.3949 5.0998 43.3396C4.10984 43.3068 3.09418 43.2567 2.1419 43.0096C0.644974 42.619 -0.130895 41.3281 0.0181131 39.7935C0.170546 38.2192 1.24443 37.1529 2.66086 36.7969C4.55686 36.32 6.39291 36.5913 8.25294 36.8989C10.3904 37.2514 11.4626 36.5654 11.9387 34.4502C12.7728 30.7485 14.2338 27.3545 16.5323 24.3303C16.7344 24.0641 16.7858 23.4455 16.6179 23.1759C16.1675 22.4587 15.6331 21.7571 14.9994 21.2058C13.7902 20.1568 12.468 19.2392 11.2314 18.2213C10.661 17.7513 10.1215 17.2173 9.67622 16.628C8.5167 15.0969 8.60576 13.2219 9.82181 12.1833C11.1286 11.0669 13.2164 11.1758 14.4976 12.4771C15.7444 13.7438 16.9434 15.0554 18.1697 16.3429C18.6835 16.882 19.2042 17.4178 19.7368 17.9362C20.8655 19.0353 21.9993 19.2392 23.4089 18.5186C24.2208 18.1038 24.9949 17.6079 25.7502 17.0929C27.2694 16.0543 28.9342 15.4494 30.748 15.2092C32.9865 14.912 33.4558 14.3434 33.4044 12.0485C33.3514 9.69132 33.2623 7.33416 33.2315 4.97527C33.2229 4.37734 33.3428 3.77249 33.4627 3.18148C33.7504 1.76614 34.3893 0.596203 35.7886 0H37.1588H37.1622Z" fill="#DA0027"/>
<path d="M37.5012 33.1714C39.2568 33.1939 41.5964 34.2083 42.8946 36.9888C43.143 37.5228 43.3177 38.1415 43.3348 38.7256C43.4016 41.043 42.8758 43.2325 41.6717 45.2216C40.8719 46.5402 39.6096 47.1053 38.1281 47.1035C36.1482 47.1001 34.2059 46.7942 32.399 45.9267C30.1724 44.857 29.191 42.9664 29.5696 40.4969C29.7049 39.619 29.8727 38.7394 30.1194 37.8874C31.0888 34.5297 32.8854 33.1904 37.4978 33.1714H37.5012Z" fill="#DA0027"/>
</svg>
