<svg width="77" height="65" viewBox="0 0 77 65" fill="none" xmlns="http://www.w3.org/2000/svg">
<path d="M2.06711 48.1244H0V54.2942H2.06711V48.1244Z" fill="#1F2A37"/>
<path d="M13.9323 48.1244H12.2687L9.55964 52.5369L6.85211 48.1244H5.18851L3.10067 54.2942H5.11124L6.33091 50.4675L8.55511 54.2942H10.5657L12.7899 50.4675L14.0096 54.2942H16.0201L13.9323 48.1244Z" fill="#1F2A37"/>
<path d="M23.7656 49.9492H23.7718C23.7718 49.9221 23.7687 49.8965 23.7656 49.8709V49.8287H23.7624C23.6063 48.1982 21.4986 48.1244 21.4986 48.1244H17.0537V54.2942H19.1864V51.7859H21.4986C21.4986 51.7859 23.6063 51.7122 23.7624 50.0816H23.7656V50.0395C23.7671 50.0139 23.7702 49.9883 23.7718 49.9612H23.7656V49.9492ZM21.6938 49.9748C21.6938 50.1434 21.6235 50.309 21.4846 50.4114C21.3394 50.5183 21.1005 50.5996 20.7024 50.592H19.1879V49.3138H20.7024C21.1005 49.3063 21.3409 49.3891 21.4846 49.4945C21.6235 49.5969 21.6938 49.764 21.6938 49.9311V49.9748Z" fill="#1F2A37"/>
<path d="M29.7307 51.7423C30.2895 51.6399 31.3726 51.2846 31.4786 50.0786H31.4815V50.0365C31.4829 50.0109 31.4858 49.9853 31.4872 49.9582H31.4815V49.9492H31.4872C31.4872 49.9221 31.4844 49.8965 31.4815 49.8709V49.8287H31.4786C31.3354 48.1982 29.4012 48.1244 29.4012 48.1244H25.3221V54.2942H27.2793V51.7859H27.5286L29.8209 54.2942H32.0403L29.7307 51.7438V51.7423ZM27.2793 50.592V49.3138H28.669C29.0344 49.3063 29.255 49.3891 29.3868 49.4945C29.5143 49.5969 29.5788 49.764 29.5788 49.9311V49.9732C29.5788 50.1419 29.5143 50.3075 29.3868 50.4099C29.2536 50.5168 29.0344 50.5981 28.669 50.5905H27.2793V50.592Z" fill="#1F2A37"/>
<path d="M38.5 48.1244C35.2179 48.1244 32.557 49.505 32.557 51.2093C32.557 52.9136 35.2179 54.2942 38.5 54.2942C41.7821 54.2942 44.443 52.9136 44.443 51.2093C44.443 49.505 41.7821 48.1244 38.5 48.1244ZM38.5 53.2083C36.3644 53.2083 34.6313 52.3097 34.6313 51.2006C34.6313 50.0915 36.3628 49.1929 38.5 49.1929C40.6372 49.1929 42.3687 50.0915 42.3687 51.2006C42.3687 52.3097 40.6372 53.2083 38.5 53.2083Z" fill="#1F2A37"/>
<path d="M55.7566 48.1244L51.4195 53.2289L47.0808 48.1244L45.4765 54.2942H46.3442L47.4904 49.9749L51.2058 54.2942H51.6316L55.3485 49.9749L56.4932 54.2942H57.3624L55.7566 48.1244Z" fill="#1F2A37"/>
<path d="M65.1141 48.6921V48.1244H59.4295V54.2942H65.1141V53.7265H60.259V51.3397H65.1141V50.772H60.259V48.6921H65.1141Z" fill="#1F2A37"/>
<path d="M76.1301 52.8018C75.2705 53.3433 73.979 53.6888 72.536 53.6888C69.9455 53.6888 67.8473 52.5783 67.8473 51.2093C67.8473 49.8403 69.947 48.7298 72.536 48.7298C74.051 48.7298 75.3984 49.1101 76.2565 49.6995L77 49.2466C75.9303 48.5614 74.311 48.1244 72.4978 48.1244C69.2755 48.1244 66.6644 49.505 66.6644 51.2093C66.6644 52.9136 69.277 54.2942 72.4978 54.2942C74.3022 54.2942 75.9156 53.8616 76.9853 53.1807L76.1287 52.8033L76.1301 52.8018Z" fill="#1F2A37"/>
<path d="M39.2131 0C41.0643 0.671677 41.5588 2.26478 41.6438 3.9556C41.7489 6.06371 41.6932 8.18732 41.582 10.2985C41.4614 12.5943 42.0038 13.5669 44.2383 13.9889C46.7524 14.4635 49.1167 15.2221 51.2291 16.7004C51.8812 17.1565 52.5518 17.0929 53.1467 16.5732C53.9426 15.8783 54.6673 15.0949 55.5048 14.4589C57.0207 13.3079 58.5753 12.205 60.1592 11.1517C60.7031 10.7887 61.3645 10.5622 62.0027 10.3932C63.242 10.0674 63.9049 10.5964 63.8755 11.8854C63.8431 13.3172 63.5108 14.6714 62.3581 15.6456C61.2965 16.5437 60.1669 17.3612 59.1146 18.2687C58.3203 18.9543 57.56 19.6912 56.8631 20.4761C56.4443 20.9492 56.4536 21.472 56.8925 22.0738C59.147 25.167 60.6366 28.5982 61.1373 32.4204C61.2053 32.9417 61.4433 33.0378 61.8976 33.0363C64.2139 33.0254 66.5318 33.0084 68.8482 33.0502C70.2806 33.0751 71.2897 34.178 71.3623 35.6733C71.4442 37.3487 70.5619 38.6176 69.0908 38.751C67.6429 38.8828 66.1826 38.8983 64.727 38.9247C63.3671 38.948 62.0042 38.8859 60.6444 38.9169C56.9914 38.9992 55.7057 37.9924 55.4662 34.3439C55.2004 30.2844 53.7401 26.8221 50.9061 23.9554C42.6142 15.5634 27.1183 17.8049 22.6525 29.8206C22.1765 31.1004 22.158 32.5492 21.8876 33.9112C21.6774 34.9706 21.4889 36.0456 21.1412 37.0617C20.7935 38.0793 20.0302 38.7308 18.8897 38.7804C17.5114 38.8409 16.133 38.9076 14.7546 38.9278C13.265 38.9495 11.7738 38.9526 10.2857 38.903C9.39255 38.8735 8.4762 38.8285 7.61704 38.6067C6.26647 38.2561 5.56647 37.0974 5.70091 35.7199C5.83843 34.3067 6.80732 33.3496 8.08525 33.0301C9.79586 32.6019 11.4524 32.8455 13.1305 33.1216C15.059 33.438 16.0264 32.8222 16.456 30.9235C17.2085 27.6008 18.5266 24.5542 20.6004 21.8396C20.7827 21.6007 20.8291 21.0454 20.6776 20.8034C20.2712 20.1596 19.7891 19.5298 19.2173 19.035C18.1264 18.0934 16.9334 17.2697 15.8178 16.356C15.3032 15.9341 14.8164 15.4548 14.4147 14.9258C13.3685 13.5514 13.4489 11.8684 14.546 10.9361C15.725 9.93399 17.6087 10.0317 18.7646 11.1998C19.8895 12.3368 20.9712 13.5142 22.0776 14.6699C22.5412 15.1538 23.011 15.6347 23.4916 16.1001C24.5099 17.0867 25.5328 17.2697 26.8046 16.6228C27.5371 16.2506 28.2355 15.8054 28.917 15.3431C30.2876 14.4108 31.7896 13.8679 33.4261 13.6523C35.4457 13.3855 35.8691 12.8751 35.8228 10.8151C35.7749 8.69923 35.6945 6.58337 35.6667 4.46595C35.659 3.92923 35.7671 3.38631 35.8753 2.85579C36.1349 1.58534 36.7113 0.53517 37.9738 0H39.2131Z" fill="#DA0027"/>
<path d="M39.519 29.7756C41.1029 29.7958 43.2138 30.7063 44.3851 33.2022C44.6092 33.6816 44.7668 34.2369 44.7822 34.7612C44.8425 36.8414 44.3681 38.8068 43.2818 40.5922C42.5601 41.7758 41.4213 42.2831 40.0846 42.2815C38.2983 42.2784 36.546 42.0038 34.9157 41.2251C32.9069 40.2649 32.0214 38.5679 32.3629 36.3512C32.485 35.5632 32.6364 34.7736 32.859 34.0089C33.7336 30.9948 35.3546 29.7926 39.516 29.7756H39.519Z" fill="#DA0027"/>
<path d="M17.9373 60.3184C17.9911 60.3719 18.0179 60.4338 18.0179 60.5042C18.0179 60.5745 17.9925 60.6364 17.9416 60.6899C17.8878 60.7406 17.8228 60.7673 17.7464 60.7701C17.6728 60.7701 17.612 60.7448 17.5639 60.6941C17.3405 60.4746 17.093 60.31 16.8214 60.2002C16.5499 60.0905 16.2684 60.0356 15.977 60.0356C15.6716 60.0356 15.383 60.0933 15.1115 60.2087C14.8427 60.3241 14.608 60.4817 14.4071 60.6815C14.2063 60.8813 14.0479 61.1163 13.9319 61.3865C13.8159 61.6566 13.7579 61.9451 13.7579 62.2518C13.7579 62.5473 13.8131 62.8288 13.9234 63.0961C14.0366 63.3635 14.1907 63.5985 14.3859 63.8011C14.5839 64.0037 14.8173 64.1656 15.086 64.2866C15.3576 64.4048 15.6517 64.4639 15.9686 64.4639C16.2599 64.4667 16.54 64.4174 16.8087 64.3161C17.0774 64.2148 17.3249 64.0516 17.5512 63.8264C17.605 63.7758 17.6686 63.7505 17.7421 63.7505C17.8157 63.7476 17.8779 63.7702 17.9288 63.818C17.9826 63.8687 18.008 63.932 18.0052 64.008C18.0052 64.084 17.9812 64.1459 17.9331 64.1937C17.6559 64.4695 17.349 64.6735 17.0123 64.8058C16.6757 64.9353 16.3278 65 15.9686 65C15.7168 65 15.4735 64.9676 15.2388 64.9029C15.004 64.8354 14.7848 64.7425 14.5811 64.6243C14.3774 64.5061 14.1922 64.364 14.0253 64.1979C13.8584 64.0291 13.7155 63.8433 13.5967 63.6407C13.4779 63.4353 13.386 63.2157 13.3209 62.9822C13.2559 62.7486 13.2233 62.5051 13.2233 62.2518C13.2233 62.0126 13.2544 61.7776 13.3167 61.5469C13.3789 61.3161 13.4666 61.0994 13.5797 60.8968C13.6957 60.6941 13.8357 60.507 13.9998 60.3353C14.1639 60.1637 14.3477 60.0159 14.5514 59.8921C14.7579 59.7682 14.9799 59.6726 15.2175 59.605C15.458 59.5346 15.7126 59.4995 15.9813 59.4995C16.3377 59.4995 16.6842 59.5684 17.0208 59.7063C17.3603 59.8442 17.6658 60.0483 17.9373 60.3184Z" fill="#1F2A37"/>
<path d="M22.4044 63.2566H19.9646L19.3154 64.7847C19.2843 64.8551 19.2348 64.9043 19.1669 64.9325C19.0991 64.9578 19.0283 64.955 18.9548 64.924C18.8841 64.8931 18.8374 64.8438 18.8148 64.7763C18.795 64.7087 18.8006 64.6412 18.8317 64.5736L20.949 59.7021C20.9971 59.5952 21.0791 59.5417 21.1951 59.5417C21.2488 59.5417 21.2969 59.5558 21.3394 59.5839C21.3818 59.6121 21.4143 59.6514 21.437 59.7021L23.5415 64.5736C23.5726 64.644 23.5769 64.7129 23.5542 64.7805C23.5344 64.8452 23.4906 64.8931 23.4227 64.924C23.3548 64.955 23.2855 64.9578 23.2148 64.9325C23.1441 64.9043 23.0931 64.8565 23.062 64.7889L22.4044 63.2566ZM20.1895 62.7246H22.1795L21.1824 60.3902L20.1895 62.7246Z" fill="#1F2A37"/>
<path d="M25.2557 64.4132L27.3348 64.4174C27.4084 64.4174 27.4706 64.4428 27.5215 64.4934C27.5724 64.5441 27.5979 64.606 27.5979 64.6792C27.5979 64.7552 27.5724 64.8199 27.5215 64.8734C27.4706 64.924 27.4084 64.9479 27.3348 64.9451H24.9884C24.9149 64.9451 24.8512 64.9198 24.7975 64.8691C24.7466 64.8185 24.7211 64.7566 24.7211 64.6834V59.8076C24.7211 59.7317 24.7466 59.6683 24.7975 59.6177C24.8512 59.567 24.9149 59.5417 24.9884 59.5417C25.062 59.5417 25.1242 59.567 25.1751 59.6177C25.2289 59.6683 25.2557 59.7317 25.2557 59.8076V64.4132Z" fill="#1F2A37"/>
<path d="M32.6331 60.3184C32.6868 60.3719 32.7137 60.4338 32.7137 60.5042C32.7137 60.5745 32.6883 60.6364 32.6373 60.6899C32.5836 60.7406 32.5185 60.7673 32.4422 60.7701C32.3686 60.7701 32.3078 60.7448 32.2597 60.6941C32.0362 60.4746 31.7887 60.31 31.5172 60.2002C31.2456 60.0905 30.9642 60.0356 30.6728 60.0356C30.3673 60.0356 30.0788 60.0933 29.8072 60.2087C29.5385 60.3241 29.3037 60.4817 29.1029 60.6815C28.9021 60.8813 28.7437 61.1163 28.6277 61.3865C28.5117 61.6566 28.4537 61.9451 28.4537 62.2518C28.4537 62.5473 28.5089 62.8288 28.6192 63.0961C28.7323 63.3635 28.8865 63.5985 29.0817 63.8011C29.2797 64.0037 29.5131 64.1656 29.7818 64.2866C30.0533 64.4048 30.3475 64.4639 30.6643 64.4639C30.9557 64.4667 31.2357 64.4174 31.5045 64.3161C31.7732 64.2148 32.0207 64.0516 32.247 63.8264C32.3007 63.7758 32.3644 63.7505 32.4379 63.7505C32.5115 63.7476 32.5737 63.7702 32.6246 63.818C32.6784 63.8687 32.7038 63.932 32.701 64.008C32.701 64.084 32.6769 64.1459 32.6289 64.1937C32.3516 64.4695 32.0447 64.6735 31.7081 64.8058C31.3715 64.9353 31.0236 65 30.6643 65C30.4126 65 30.1693 64.9676 29.9345 64.9029C29.6998 64.8354 29.4805 64.7425 29.2769 64.6243C29.0732 64.5061 28.8879 64.364 28.721 64.1979C28.5541 64.0291 28.4113 63.8433 28.2925 63.6407C28.1737 63.4353 28.0817 63.2157 28.0167 62.9822C27.9516 62.7486 27.9191 62.5051 27.9191 62.2518C27.9191 62.0126 27.9502 61.7776 28.0124 61.5469C28.0747 61.3161 28.1624 61.0994 28.2755 60.8968C28.3915 60.6941 28.5315 60.507 28.6956 60.3353C28.8596 60.1637 29.0435 60.0159 29.2472 59.8921C29.4537 59.7682 29.6757 59.6726 29.9133 59.605C30.1538 59.5346 30.4083 59.4995 30.6771 59.4995C31.0335 59.4995 31.38 59.5684 31.7166 59.7063C32.056 59.8442 32.3615 60.0483 32.6331 60.3184Z" fill="#1F2A37"/>
<path d="M37.0916 59.7992C37.0916 59.726 37.1171 59.6641 37.168 59.6135C37.2218 59.5628 37.2854 59.5375 37.359 59.5375C37.4353 59.5375 37.499 59.5628 37.5499 59.6135C37.6008 59.6641 37.6263 59.726 37.6263 59.7992V63.1004C37.6263 63.3621 37.5782 63.6083 37.482 63.8391C37.3887 64.0699 37.2571 64.2711 37.0874 64.4428C36.9205 64.6116 36.7211 64.7467 36.4891 64.848C36.26 64.9465 36.0083 64.9958 35.7339 64.9958C35.4567 64.9958 35.1993 64.9465 34.9617 64.848C34.7269 64.7467 34.5218 64.6116 34.3464 64.4428C34.1739 64.2711 34.0381 64.0699 33.9391 63.8391C33.8401 63.6083 33.7906 63.3621 33.7906 63.1004V59.8161C33.7906 59.7401 33.816 59.6768 33.867 59.6261C33.9207 59.5755 33.9843 59.5501 34.0579 59.5501C34.1314 59.5501 34.1937 59.5755 34.2446 59.6261C34.2983 59.6768 34.3252 59.7401 34.3252 59.8161V63.0877C34.3252 63.2791 34.3606 63.4592 34.4313 63.628C34.5048 63.7969 34.6038 63.9432 34.7283 64.0671C34.8556 64.1909 35.0041 64.2894 35.1738 64.3626C35.3464 64.4329 35.5316 64.4681 35.7296 64.4681C35.9276 64.4681 36.1087 64.4329 36.2727 64.3626C36.4396 64.2894 36.5825 64.1923 36.7013 64.0713C36.8229 63.9475 36.9177 63.8039 36.9856 63.6407C37.0535 63.4747 37.0888 63.2974 37.0916 63.1088V59.7992Z" fill="#1F2A37"/>
<path d="M39.6366 64.4132L41.7157 64.4174C41.7892 64.4174 41.8515 64.4428 41.9024 64.4934C41.9533 64.5441 41.9788 64.606 41.9788 64.6792C41.9788 64.7552 41.9533 64.8199 41.9024 64.8734C41.8515 64.924 41.7892 64.9479 41.7157 64.9451H39.3693C39.2957 64.9451 39.2321 64.9198 39.1784 64.8691C39.1274 64.8185 39.102 64.7566 39.102 64.6834V59.8076C39.102 59.7317 39.1274 59.6683 39.1784 59.6177C39.2321 59.567 39.2957 59.5417 39.3693 59.5417C39.4428 59.5417 39.5051 59.567 39.556 59.6177C39.6097 59.6683 39.6366 59.7317 39.6366 59.8076V64.4132Z" fill="#1F2A37"/>
<path d="M46.3227 63.2566H43.883L43.2338 64.7847C43.2027 64.8551 43.1532 64.9043 43.0853 64.9325C43.0174 64.9578 42.9467 64.955 42.8732 64.924C42.8025 64.8931 42.7558 64.8438 42.7332 64.7763C42.7133 64.7087 42.719 64.6412 42.7501 64.5736L44.8674 59.7021C44.9155 59.5952 44.9975 59.5417 45.1135 59.5417C45.1672 59.5417 45.2153 59.5558 45.2577 59.5839C45.3002 59.6121 45.3327 59.6514 45.3553 59.7021L47.4599 64.5736C47.491 64.644 47.4952 64.7129 47.4726 64.7805C47.4528 64.8452 47.409 64.8931 47.3411 64.924C47.2732 64.955 47.2039 64.9578 47.1332 64.9325C47.0624 64.9043 47.0115 64.8565 46.9804 64.7889L46.3227 63.2566ZM44.1079 62.7246H46.0979L45.1007 60.3902L44.1079 62.7246Z" fill="#1F2A37"/>
<path d="M49.8191 59.5417C50.0736 59.5417 50.3183 59.5741 50.5531 59.6388C50.7907 59.7007 51.0113 59.7908 51.215 59.909C51.4187 60.0243 51.6054 60.1637 51.7751 60.3269C51.9448 60.4901 52.0891 60.6716 52.2079 60.8714C52.3267 61.0713 52.4186 61.288 52.4837 61.5215C52.5516 61.7523 52.5855 61.9943 52.5855 62.2476C52.5855 62.6276 52.512 62.9822 52.3649 63.3114C52.2206 63.6379 52.0226 63.9235 51.7709 64.1684C51.5219 64.4104 51.2292 64.6004 50.8925 64.7383C50.5588 64.8762 50.2009 64.9451 49.8191 64.9451H48.9068C48.8333 64.9451 48.7696 64.9198 48.7159 64.8691C48.665 64.8185 48.6395 64.7566 48.6395 64.6834V59.8034C48.6395 59.7274 48.665 59.6655 48.7159 59.6177C48.7696 59.567 48.8333 59.5417 48.9068 59.5417H49.8191ZM49.8318 60.0778H49.1741V64.4132H49.8233C50.1316 64.4132 50.4202 64.3584 50.6889 64.2486C50.9604 64.1388 51.1966 63.9869 51.3975 63.7927C51.5983 63.5985 51.7567 63.3705 51.8727 63.1088C51.9887 62.8443 52.0466 62.5572 52.0466 62.2476C52.0466 61.9437 51.9887 61.6594 51.8727 61.3949C51.7567 61.1304 51.5983 60.901 51.3975 60.7068C51.1995 60.5126 50.9647 60.3592 50.6931 60.2467C50.4244 60.1341 50.1373 60.0778 49.8318 60.0778Z" fill="#1F2A37"/>
<path d="M56.2818 59.5037C56.6637 59.5037 57.0215 59.5755 57.3553 59.719C57.6919 59.8625 57.9846 60.0595 58.2336 60.31C58.4853 60.5576 58.6833 60.8475 58.8276 61.1796C58.9747 61.5117 59.0482 61.8677 59.0482 62.2476C59.0482 62.5009 59.0143 62.7458 58.9464 62.9822C58.8813 63.2157 58.7894 63.4338 58.6706 63.6365C58.5518 63.8391 58.4075 64.0249 58.2378 64.1937C58.0681 64.3626 57.8814 64.5061 57.6777 64.6243C57.4741 64.7425 57.2534 64.8354 57.0158 64.9029C56.781 64.9676 56.5364 65 56.2818 65C56.0272 65 55.7811 64.9676 55.5435 64.9029C55.3087 64.8354 55.0895 64.7425 54.8858 64.6243C54.6822 64.5061 54.4969 64.3626 54.33 64.1937C54.1631 64.0249 54.0202 63.8391 53.9014 63.6365C53.7826 63.4338 53.6907 63.2157 53.6256 62.9822C53.5606 62.7458 53.528 62.5009 53.528 62.2476C53.528 61.9943 53.5606 61.7509 53.6256 61.5173C53.6907 61.2837 53.7826 61.0656 53.9014 60.863C54.0202 60.6604 54.1631 60.476 54.33 60.31C54.4969 60.1411 54.6822 59.9976 54.8858 59.8794C55.0895 59.7584 55.3087 59.6655 55.5435 59.6008C55.7811 59.5361 56.0272 59.5037 56.2818 59.5037ZM56.286 60.0398C55.9749 60.0398 55.6835 60.0975 55.412 60.2129C55.1432 60.3283 54.9084 60.4859 54.7076 60.6857C54.5096 60.8855 54.3526 61.1191 54.2366 61.3865C54.1207 61.6538 54.0627 61.9409 54.0627 62.2476C54.0627 62.5572 54.1207 62.8471 54.2366 63.1172C54.3526 63.3846 54.5096 63.6182 54.7076 63.818C54.9084 64.0178 55.1432 64.1754 55.412 64.2908C55.6835 64.4062 55.9749 64.4639 56.286 64.4639C56.5943 64.4639 56.8829 64.4062 57.1516 64.2908C57.4231 64.1754 57.6593 64.0178 57.8602 63.818C58.061 63.6182 58.2194 63.3846 58.3354 63.1172C58.4514 62.8471 58.5094 62.5572 58.5094 62.2476C58.5094 61.9409 58.4514 61.6538 58.3354 61.3865C58.2194 61.1191 58.061 60.8855 57.8602 60.6857C57.6593 60.4859 57.4231 60.3283 57.1516 60.2129C56.8829 60.0975 56.5943 60.0398 56.286 60.0398Z" fill="#1F2A37"/>
<path d="M63.5871 61.0867C63.5871 61.2781 63.5545 61.4582 63.4895 61.6271C63.4272 61.7931 63.3396 61.9423 63.2264 62.0746C63.1133 62.204 62.9789 62.3138 62.8233 62.4038C62.6677 62.4939 62.498 62.5558 62.3142 62.5896L63.5446 64.5483C63.5842 64.6215 63.5913 64.6932 63.5658 64.7636C63.5404 64.834 63.4937 64.8846 63.4258 64.9156C63.3608 64.9493 63.2943 64.9564 63.2264 64.9367C63.1613 64.9142 63.1104 64.872 63.0737 64.81L61.7201 62.6191H60.8249V64.6834C60.8249 64.7566 60.798 64.8185 60.7442 64.8691C60.6933 64.9198 60.6311 64.9451 60.5575 64.9451C60.484 64.9451 60.4204 64.9198 60.3666 64.8691C60.3157 64.8185 60.2902 64.7566 60.2902 64.6834V59.8034C60.2902 59.7274 60.3157 59.6655 60.3666 59.6177C60.4204 59.567 60.484 59.5417 60.5575 59.5417H61.9832C62.2067 59.5417 62.416 59.5811 62.6112 59.6599C62.8063 59.7387 62.9761 59.847 63.1203 59.9849C63.2646 60.1228 63.3777 60.2861 63.4598 60.4746C63.5446 60.6632 63.5871 60.8672 63.5871 61.0867ZM60.8249 60.0651V62.0872H61.9874C62.1402 62.0872 62.2816 62.0605 62.4117 62.007C62.5419 61.9507 62.6536 61.8761 62.7469 61.7833C62.8431 61.6904 62.9181 61.5835 62.9718 61.4624C63.0256 61.3386 63.0524 61.2092 63.0524 61.0741C63.0524 60.9305 63.0242 60.7983 62.9676 60.6773C62.9138 60.5534 62.8389 60.4465 62.7427 60.3564C62.6494 60.2664 62.5362 60.196 62.4033 60.1454C62.2731 60.0919 62.1317 60.0651 61.979 60.0651H60.8249Z" fill="#1F2A37"/>
</svg>
