<?xml version="1.0" encoding="utf-8"?>
<!-- Generator: Adobe Illustrator 19.2.1, SVG Export Plug-In . SVG Version: 6.00 Build 0)  -->
<svg version="1.1" id="layer" xmlns="http://www.w3.org/2000/svg" xmlns:xlink="http://www.w3.org/1999/xlink" x="0px" y="0px"
	 viewBox="0 0 652 652" style="enable-background:new 0 0 652 652;" xml:space="preserve">
<style type="text/css">
	.st0{fill:#00355B;}
</style>
<path class="st0" d="M229.2,340.4c-0.7,16.6-6.6,34.3-19.4,49.7c-0.6,0.8-1.1,1-1.8,1s-1.3-0.3-2-0.8c-1.2-0.9-4-3.2-4.9-3.9
	c-0.8-0.7-1.3-1.3-1.3-2.1c0-0.8,0.4-1.5,0.9-2.3c8.5-12.3,13.1-22.7,14.8-33.9C219.3,346.4,225.4,342.9,229.2,340.4z M191.9,358.5
	c-4.1,1.6-8.5,3.2-13,4.7v46.5c0,1.7,0.8,2.5,2.2,2.5c0.5,0,1.1-0.1,1.8-0.4c1.5-0.7,5.6-2.9,7.2-4s1.8-2,1.8-4.3
	C191.9,403.6,191.9,358.5,191.9,358.5z M151.5,371.6v46.2c0,1.6,0.8,2.5,2.5,2.5c1.8,0,5.5-0.8,7.8-1.6c1.9-0.6,2.5-1.5,2.5-3.3
	v-47.5C160,369.1,155.8,370.4,151.5,371.6z M80,383.5v8.5c0,3,0.6,4.2,2.4,5.6c1.8,1.5,4,3.2,6.3,5.2c0.8,0.7,1.6,1,2.3,1
	c1.1,0,1.7-0.7,1.7-2.2v-19.1C88.5,383,84.2,383.3,80,383.5z M125.5,377.7v26.1c0,1.9-0.8,2.6-2.3,2.6c-1.6,0-4.4-0.6-6-1.5
	c-1.9-1.1-2.3-2.2-2.3-4.6v-20.7c-4.3,0.8-8.6,1.4-12.8,2v23c0,4.8,1.4,7.4,6,9.9c6,3.4,18.5,6.4,24.6,6.4c3.8,0,5.6-2.1,5.6-5.3
	v-40.8C134.1,375.8,129.8,376.8,125.5,377.7z M251,307.2c0,20.6-49.8,47.5-115.9,63c-20.6,4.8-44.1,8.7-62.7,8.7
	c-27.2,0-38.3-9.6-38.3-20.6c0-6.6,4-12.9,12.4-18.5c0.5-0.3,0.9-0.5,1.3-0.5c0.5,0,0.8,0.3,0.8,0.8c0,0.4-0.2,0.7-0.7,1.1
	c-6.6,5.2-9.9,10.6-9.9,16.3c0,7.7,8.4,16,34,16c2.5,0,5.2-0.1,8.2-0.2v-31.6H68.4c0.4,5.6,1.4,10.5,3.3,17.4
	c0.2,0.8,0.4,1.4,0.4,1.8c0,1.1-0.5,1.7-2.1,2.3c-1.9,0.7-3.6,1.3-5.3,1.9c-0.7,0.2-1.3,0.4-1.8,0.4c-1.2,0-1.9-0.7-2.4-2
	c-3.6-8.6-5-19.6-5-28.4c0-25.3,13.6-50.2,32.8-64.8c0.9-0.8,1.8-1,2.5-1c1.3,0,2,1,2,2v101.1c3-0.3,6.2-0.8,9.4-1.2v-18.4
	c0-2.3,0.9-3.2,3.4-3.2h6c2.5,0,3.3,0.8,3.3,3.2v16.3c3.5-0.6,6.9-1.3,10.5-2v-17.3c0-3.2-0.8-4.5-3.3-6c-2.5-1.5-7.5-4.4-10.9-6.5
	c-6.2-3.7-9-7.1-9-14.9v-53.6c0-3.9,0.8-6.5,4.4-8.7c6.9-4.4,19.3-8.6,25.2-8.6c3.7,0,5.3,1.7,5.3,4.7v60.4c0,2.3-0.8,3.2-3.3,3.2
	h-6.2c-2.5,0-3.3-0.8-3.3-3.2v-47.7c0-1.9-0.5-2.6-1.9-2.6c-1.1,0-3.3,0.8-5,1.8c-1.8,1.1-2.3,2.3-2.3,4.6v46.6c0,3.3,0.5,4.3,3.2,6
	c3.2,2,8,4.8,10.9,6.5c6.5,3.8,9,7.5,9,14.9v17.3c4.4-1.1,8.7-2.2,13-3.4v-96.2c-1.5-0.2-4.4-0.5-7.5-0.8c-2.4-0.2-2.8-1.2-2.8-2.9
	V254c0-1.9,1-2.9,3.1-2.9c7.8,0,21.8,2.8,27.7,5.1c2.3,0.9,2.8,1.8,2.8,3.5v7.3c0,1.6-0.8,2.3-2,2.3c-0.5,0-1.1-0.2-2.3-0.5
	c-2.6-0.8-4.9-1.6-6.4-2v89.9c5-1.6,9.9-3.2,14.8-4.9v-90.4c0-1.4,0.8-2.3,2-2.3c1.4,0,2,1.1,3,3.2c3.7,8.6,12.6,29.1,19.7,45.4
	c2.6-7.1,5.6-15.7,6.3-17.6c0.5-1.4,1.1-2,2.2-2c0.8,0,1.4,0.4,2.4,1.6c8.1,11.1,13,23.6,14.4,38.6c11.3-7.5,18.2-14.9,18.2-21.4
	c0-6.4-6.1-11.8-20.8-12.6c-0.7,0-1.1-0.4-1.1-0.9c0-0.5,0.4-0.8,1.1-0.8C243,292.7,251,299.9,251,307.2z M80,328.8v-32.5
	c-6.6,8.8-10.7,21-11.7,32.5H80z M191.9,346.8c9-3.6,17.3-7.4,24.6-11.3c-0.1-9.1-1.4-15.5-3.9-20.7c-2.6,6.3-6.4,15.4-7.5,18.1
	c-0.4,1-1,1.6-1.7,1.6s-1.2-0.5-1.7-1.5c-0.8-1.6-5.9-12.1-9.6-20V346.8z"/>
<g>
	<path class="st0" d="M308.1,325.8c-0.8,0-1.7-0.5-2-1.4l-2.5-6.3h-16.3l-2.5,6.3c-0.4,0.8-1.1,1.4-2,1.4c-1.4,0-2.2-1.1-2.2-2.2
		c0-0.2,0.1-0.5,0.2-0.8l11.3-28.3c0.5-1.4,1.8-2.2,3.3-2.2c1.4,0,2.7,0.9,3.2,2.2l11.5,28.2c0.1,0.2,0.2,0.5,0.2,0.8
		C310.3,324.5,309.4,325.8,308.1,325.8z M302.4,314.5l-6.9-17.7l-7,17.7H302.4z"/>
	<path class="st0" d="M326.4,326c-4.8,0-8.8-1.7-11.5-4.1c-0.5-0.4-0.7-0.9-0.7-1.5c0-1,0.8-2,2-2c0.4,0,0.8,0.1,1.2,0.4
		c2.3,2,5.4,3.6,9.2,3.6c5.9,0,7.8-3.2,7.8-5.6c0-8.4-19.4-3.8-19.4-15.5c0-5.3,4.8-9.1,11.3-9.1c4.2,0,7.9,1.3,10.5,3.5
		c0.5,0.4,0.7,0.9,0.7,1.5c0,1-0.8,2-2,2c-0.5,0-0.8-0.2-1.2-0.5c-2.4-2-5.4-2.9-8.4-2.9c-3.9,0-6.8,2-6.8,5.2
		c0,7.4,19.4,3.2,19.4,15.4C338.5,321.2,335.3,326,326.4,326z"/>
	<path class="st0" d="M365.2,296.2h-9v27.5c0,1.1-0.9,2-2,2s-2-0.9-2-2v-27.5h-8.9c-1,0-1.8-0.8-1.8-1.9c0-1,0.8-1.8,1.8-1.8h22
		c1,0,1.8,0.8,1.8,1.9C367,295.4,366.2,296.2,365.2,296.2z"/>
	<path class="st0" d="M403.6,323.7c0,1.1-0.9,2-2,2s-2-0.9-2-2v-25.3l-11,26.7c-0.2,0.4-0.5,0.7-1.1,0.7c-0.4,0-0.8-0.2-0.9-0.7
		l-11-26.7v25.3c0,1.1-0.9,2-2,2s-2-0.9-2-2v-28.1c0-1.8,1.5-3.3,3.4-3.3c1.4,0,2.7,0.8,3.2,2l9.4,22.9l9.5-22.9
		c0.5-1.4,1.9-2,3.2-2c1.8,0,3.4,1.5,3.4,3.3L403.6,323.7L403.6,323.7z"/>
	<path class="st0" d="M284.7,377.1c0,1.1-0.9,2-2,2s-2-0.9-2-2v-29.5c0-1.1,0.9-2,2.1-2c1.1,0,2,0.8,2,2
		C284.7,347.6,284.7,377.1,284.7,377.1z"/>
	<path class="st0" d="M318.4,376.8c0,1.2-1,2.3-2.5,2.3c-0.8,0-1.6-0.4-2-1.1l-18.6-25.5v24.5c0,1.1-0.9,2-2,2s-2-0.9-2-2v-29
		c0-1.4,1.1-2.5,2.6-2.5c0.8,0,1.7,0.4,2.2,1.1l18.3,24.9v-24c0-1.1,0.9-2,2.1-2c1.1,0,2,0.8,2,2L318.4,376.8L318.4,376.8z"/>
	<path class="st0" d="M346.7,349.6h-9v27.5c0,1.1-0.9,2-2,2s-2-0.9-2-2v-27.5h-8.9c-1,0-1.8-0.8-1.8-1.9c0-1,0.8-1.8,1.8-1.8h22
		c1,0,1.8,0.8,1.8,1.9C348.5,348.8,347.8,349.6,346.7,349.6z"/>
	<path class="st0" d="M372.9,378.8h-17.1c-1.7,0-2.9-1.4-2.9-2.9v-27c0-1.7,1.4-2.9,2.9-2.9h17.1c1,0,1.8,0.8,1.8,1.9
		c0,1-0.8,1.8-1.8,1.8h-16v10.6h15.6c1,0,1.8,0.8,1.8,1.9c0,1-0.8,1.8-1.8,1.8H357v11.3h16c1,0,1.8,0.8,1.8,1.8
		C374.7,378,373.9,378.8,372.9,378.8z"/>
	<path class="st0" d="M395.7,365.4l7.1,10.7c0.2,0.4,0.3,0.7,0.3,1.1c0,1-0.8,2-2,2c-0.7,0-1.2-0.3-1.7-0.9l-8.1-12.4h-6.6v11.3
		c0,1.1-0.9,2-2,2s-2-0.9-2-2v-28.2c0-1.7,1.4-2.9,2.9-2.9h10.2c6,0,10.3,3.8,10.3,9.9C404.2,361.8,400.2,365,395.7,365.4z
		 M384.7,349.6v12.6h8.6c3.9,0,6.6-2.6,6.6-6.3s-2.6-6.3-6.6-6.3H384.7z"/>
	<path class="st0" d="M437.3,376.8c0,1.2-1,2.3-2.5,2.3c-0.8,0-1.6-0.4-2-1.1l-18.6-25.5v24.5c0,1.1-0.9,2-2,2s-2-0.9-2-2v-29
		c0-1.4,1.1-2.5,2.6-2.5c0.8,0,1.7,0.4,2.2,1.1l18.3,24.9v-24c0-1.1,0.9-2,2.1-2c1.1,0,2,0.8,2,2L437.3,376.8L437.3,376.8z"/>
	<path class="st0" d="M469.7,379.1c-0.8,0-1.7-0.5-2-1.4l-2.5-6.3h-16.3l-2.5,6.3c-0.4,0.8-1.1,1.4-2,1.4c-1.4,0-2.2-1.1-2.2-2.2
		c0-0.2,0.1-0.5,0.2-0.8l11.3-28.2c0.5-1.4,1.8-2.2,3.3-2.2c1.4,0,2.7,0.9,3.2,2.2l11.5,28.2c0.1,0.2,0.2,0.5,0.2,0.8
		C471.9,377.9,471.1,379.1,469.7,379.1z M464.1,367.9l-6.9-17.7l-7,17.7H464.1z"/>
	<path class="st0" d="M493.1,349.6h-9v27.5c0,1.1-0.9,2-2,2s-2-0.9-2-2v-27.5h-8.9c-1,0-1.8-0.8-1.8-1.9c0-1,0.8-1.8,1.8-1.8h22
		c1,0,1.8,0.8,1.8,1.9C495,348.8,494.1,349.6,493.1,349.6z"/>
	<path class="st0" d="M503.9,377.1c0,1.1-0.9,2-2,2s-2-0.9-2-2v-29.5c0-1.1,0.9-2,2.1-2c1.1,0,2,0.8,2,2L503.9,377.1L503.9,377.1z"
		/>
	<path class="st0" d="M525.5,379.4c-9.7,0-16.3-7.3-16.3-17c0-9.7,6.6-17,16.3-17s16.3,7.3,16.3,17
		C541.9,372.1,535.3,379.4,525.5,379.4z M525.5,349c-7.4,0-12.1,5.6-12.1,13.3c0,7.6,4.7,13.3,12.1,13.3c7.3,0,12.1-5.7,12.1-13.3
		C537.6,354.7,532.8,349,525.5,349z"/>
	<path class="st0" d="M574.7,376.8c0,1.2-1,2.3-2.5,2.3c-0.8,0-1.6-0.4-2-1.1l-18.6-25.5v24.5c0,1.1-0.9,2-2,2s-2-0.9-2-2v-29
		c0-1.4,1.1-2.5,2.6-2.5c0.8,0,1.7,0.4,2.2,1.1l18.3,24.9v-24c0-1.1,0.9-2,2.1-2c1.1,0,2,0.8,2,2V376.8L574.7,376.8z"/>
	<path class="st0" d="M607.1,379.1c-0.8,0-1.7-0.5-2-1.4l-2.5-6.3h-16.3l-2.5,6.3c-0.4,0.8-1.1,1.4-2,1.4c-1.4,0-2.2-1.1-2.2-2.2
		c0-0.2,0.1-0.5,0.2-0.8l11.3-28.2c0.5-1.4,1.8-2.2,3.3-2.2c1.4,0,2.7,0.9,3.2,2.2l11.5,28.2c0.1,0.2,0.2,0.5,0.2,0.8
		C609.3,377.9,608.5,379.1,607.1,379.1z M601.5,367.9l-6.9-17.7l-7,17.7H601.5z"/>
	<path class="st0" d="M632.2,378.8h-14.9c-1.7,0-2.9-1.4-2.9-2.9v-28.2c0-1.1,0.9-2,2.1-2c1.1,0,2,0.8,2,2v27.6h13.8
		c1,0,1.8,0.8,1.8,1.8C633.9,378,633.2,378.8,632.2,378.8z"/>
</g>
</svg>
