<svg width="70" height="70" viewBox="0 0 70 70" fill="none" xmlns="http://www.w3.org/2000/svg">
<g clip-path="url(#clip0_2039_24126)">
<circle cx="35" cy="35" r="32" fill="#DFE4EA"/>
<g clip-path="url(#clip1_2039_24126)">
<path d="M35 0.875C16.1875 0.875 0.875 16.1875 0.875 35C0.875 53.8125 16.1875 69.2344 35.1094 69.2344C54.0312 69.2344 69.3438 53.9219 69.3438 35C69.3438 16.0781 53.8125 0.875 35 0.875ZM35 64.3125C18.8125 64.3125 5.6875 51.1875 5.6875 35C5.6875 18.8125 18.9219 5.79688 35 5.79688C51.0781 5.79688 64.3125 18.9219 64.3125 35.1094C64.3125 51.2969 51.1875 64.3125 35 64.3125Z" fill="#1F2A37"/>
</g>
<path d="M48.8346 21.0138C47.4812 19.6621 45.3759 19.6621 44.0226 21.0138L35 30.1752L25.8271 21.0138C24.4737 19.6621 22.3684 19.6621 21.015 21.0138C19.6617 22.3655 19.6617 24.4681 21.015 25.8198L30.188 34.9812L21.015 44.1427C19.6617 45.4944 19.6617 47.597 21.015 48.9487C21.6165 49.5494 22.5188 50 23.4211 50C24.3233 50 25.2256 49.6996 25.8271 48.9487L35 39.7872L44.1729 48.9487C44.7744 49.5494 45.6767 50 46.5789 50C47.4812 50 48.3835 49.6996 48.985 48.9487C50.3383 47.597 50.3383 45.4944 48.985 44.1427L39.812 34.9812L48.985 25.8198C50.188 24.4681 50.188 22.3655 48.8346 21.0138Z" fill="#1F2A37"/>
<path d="M64.1729 68.9675L55 59.806L59.812 55L68.985 64.1614C70.3383 65.5131 70.3383 67.6158 68.985 68.9675C68.3835 69.7184 67.4812 70.0188 66.579 70.0188C65.6767 70.0188 64.7744 69.5682 64.1729 68.9675Z" fill="#1F2A37"/>
</g>
<defs>
<clipPath id="clip0_2039_24126">
<rect width="70" height="70" fill="white"/>
</clipPath>
<clipPath id="clip1_2039_24126">
<rect width="70" height="70" fill="white"/>
</clipPath>
</defs>
</svg>
