<svg width="307" height="109" viewBox="0 0 307 109" fill="none" xmlns="http://www.w3.org/2000/svg">
<path fill-rule="evenodd" clip-rule="evenodd" d="M206.337 29.8045C196.193 8.09539 177.912 0.1754 164.194 0H164.167C128.127 0.148416 114.088 10.605 106.513 36.8206C104.586 43.4723 103.275 50.3399 102.218 57.194C99.2599 76.4745 106.928 91.2351 124.326 99.5869C138.445 106.36 153.622 108.748 169.092 108.775C180.669 108.789 190.532 104.377 196.782 94.082C206.19 78.5523 210.299 61.4575 209.777 43.3643C209.643 38.8039 208.278 33.9737 206.337 29.8045ZM180.506 42.2827C175.537 31.5934 166.583 27.6937 159.865 27.6073H159.851C142.199 27.6804 135.323 32.8291 131.613 45.7373C130.669 49.0125 130.026 52.394 129.509 55.7688C128.06 65.2623 131.816 72.5302 140.337 76.6425C147.253 79.9775 154.686 81.1534 162.264 81.1667C167.934 81.1733 172.765 79.0009 175.826 73.932C180.434 66.2854 182.446 57.8681 182.191 48.9593C182.125 46.7138 181.456 44.3355 180.506 42.2827Z" fill="#DA0027"/>
<path d="M0 91.7432V68.8074L43.6283 0H64.3836V30.5811H52.5234L29.015 67.9579V68.8074H93.3985V91.7432H0ZM52.7352 108.733V84.7351L53.3706 74.7537V0H80.903V108.733H52.7352Z" fill="#3F3F3F"/>
<path d="M213.601 91.7432V68.8074L257.23 0H277.985V30.5811H266.125L242.616 67.9579V68.8074H307V91.7432H213.601ZM266.337 108.733V84.7351L266.972 74.7537V0H294.504V108.733H266.337Z" fill="#3F3F3F"/>
<rect x="144.486" y="46.877" width="4.80774" height="9.01452" rx="2.40387" fill="#3F3F3F"/>
<rect x="163.717" y="46.877" width="4.80774" height="9.01452" rx="2.40387" fill="#3F3F3F"/>
<path d="M153.251 60.1656C153.053 60.3335 152.929 60.5734 152.905 60.8334C152.881 61.0933 152.959 61.3523 153.123 61.5541C153.206 61.6545 153.307 61.7376 153.421 61.7984C153.536 61.8593 153.661 61.8967 153.79 61.9087C153.918 61.9207 154.048 61.9069 154.171 61.8682C154.295 61.8295 154.409 61.7666 154.509 61.6831C155.166 61.1485 155.984 60.857 156.828 60.857C157.671 60.857 158.49 61.1485 159.146 61.6831C159.323 61.8309 159.546 61.9116 159.775 61.9112C159.975 61.9092 160.17 61.8456 160.333 61.729C160.497 61.6123 160.621 61.4481 160.689 61.2584C160.757 61.0686 160.767 60.8623 160.716 60.667C160.665 60.4718 160.556 60.2968 160.404 60.1656C159.39 59.343 158.128 58.8945 156.828 58.8945C155.527 58.8945 154.265 59.343 153.251 60.1656Z" fill="#3F3F3F"/>
</svg>
