<svg width="71" height="70" viewBox="0 0 71 70" fill="none" xmlns="http://www.w3.org/2000/svg">
<g clip-path="url(#clip0_481_20083)">
<circle cx="35.5" cy="35" r="32" fill="#FABC00"/>
<path d="M50.5 42H21.5C23.1667 45.5 28.4 52.5 36 52.5C43.6 52.5 48.8333 45.5 50.5 42Z" fill="white"/>
<path d="M51.1406 38.6094H19.8594C19.0938 38.6094 18.3281 38.9375 17.8906 39.5938C17.4531 40.25 17.2344 41.0156 17.4531 41.7813C19.75 49.875 27.1875 55.5625 35.5 55.5625C44.0313 55.5625 51.25 50.0938 53.5469 41.7813C53.7656 41.0156 53.6562 40.25 53.1094 39.5938C52.6719 38.9375 51.9063 38.6094 51.1406 38.6094ZM35.5 50.5313C30.4688 50.5313 25.9844 47.7969 23.4688 43.5312H47.5313C45.125 47.7969 40.6406 50.5313 35.5 50.5313Z" fill="#1F2A37"/>
<path d="M35.5 0.875C16.6875 0.875 1.375 16.1875 1.375 35C1.375 53.8125 16.6875 69.2344 35.6094 69.2344C54.5312 69.2344 69.8438 53.9219 69.8438 35C69.8438 16.0781 54.3125 0.875 35.5 0.875ZM35.5 64.3125C19.3125 64.3125 6.1875 51.1875 6.1875 35C6.1875 18.8125 19.4219 5.79688 35.5 5.79688C51.5781 5.79688 64.8125 18.9219 64.8125 35.1094C64.8125 51.2969 51.6875 64.3125 35.5 64.3125Z" fill="#1F2A37"/>
<path d="M22.375 29.3125C24.7912 29.3125 26.75 27.3537 26.75 24.9375C26.75 22.5213 24.7912 20.5625 22.375 20.5625C19.9588 20.5625 18 22.5213 18 24.9375C18 27.3537 19.9588 29.3125 22.375 29.3125Z" fill="#1F2A37"/>
<path d="M48.625 29.3125C51.0412 29.3125 53 27.3537 53 24.9375C53 22.5213 51.0412 20.5625 48.625 20.5625C46.2088 20.5625 44.25 22.5213 44.25 24.9375C44.25 27.3537 46.2088 29.3125 48.625 29.3125Z" fill="#1F2A37"/>
</g>
<defs>
<clipPath id="clip0_481_20083">
<rect width="70" height="70" fill="white" transform="translate(0.5)"/>
</clipPath>
</defs>
</svg>
